<?xml version="1.0" encoding="UTF-8"?>
<!DOCTYPE svg PUBLIC "-//W3C//DTD SVG 1.1//EN" "http://www.w3.org/Graphics/SVG/1.1/DTD/svg11.dtd">
<svg version="1.2" xmlns="http://www.w3.org/2000/svg" xmlns:xlink="http://www.w3.org/1999/xlink" x="0" y="0" width="1039" height="945" viewBox="0 0 1039 945">
<style type="text/css"><![CDATA[
text { font:12px Dialog; }
]]></style>
<rect x="-1508" y="-1455" width="4018" height="3830" style="fill:rgb(255,255,255);stroke:none" />
<clipPath id="clip1"><path d="M500,447 L577,447 L577,524 L500,524 L500,447 Z" /></clipPath>
<path d="M572,485 C572,466.2223206 556.77771,451 538,451 C519.22229,451 504,466.2223206 504,485 C504,503.7776794 519.22229,519 538,519 C556.77771,519 572,503.7776794 572,485 Z M572,485" style="fill:rgb(255,255,255);stroke:none" clip-path="url(#clip1)" />
<clipPath id="clip2"><path d="M500,447 L577,447 L577,524 L500,524 L500,447 Z" /></clipPath>
<path d="M572,485 C572,466.2223206 556.77771,451 538,451 C519.22229,451 504,466.2223206 504,485 C504,503.7776794 519.22229,519 538,519 C556.77771,519 572,503.7776794 572,485 Z M572,485" style="fill:none;stroke:rgb(255,255,255);stroke-width:5" clip-path="url(#clip2)" />
<clipPath id="clip3"><path d="M530,471 L547,471 L547,500 L530,500 L530,471 Z" /></clipPath>
<path d="M536.7158203,485.3945313 L533.5517578,480.5869141 L536.5927734,480.5869141 L538.5,483.7158203 L540.4248047,480.5869141 L543.4658203,480.5869141 L540.2666016,485.3945313 L543.6152344,490.4130859 L540.5654297,490.4130859 L538.5,487.046875 L536.4257813,490.4130859 L533.3847656,490.4130859 Z M543.703125,490.4130859" style="fill:rgb(255,255,255);stroke:none" clip-path="url(#clip3)" />
<clipPath id="clip4"><path d="M160,150 L298,150 L298,287 L160,287 L160,150 Z" /></clipPath>
<path d="M293,218 C293,182.6537781 264.1223755,154 228.5,154 C192.8776245,154 164,182.6537781 164,218 C164,253.3462219 192.8776245,282 228.5,282 C264.1223755,282 293,253.3462219 293,218 Z M293,218" style="fill:rgb(85,142,213);stroke:none" clip-path="url(#clip4)" />
<clipPath id="clip5"><path d="M160,150 L298,150 L298,287 L160,287 L160,150 Z" /></clipPath>
<path d="M293,218 C293,182.6537781 264.1223755,154 228.5,154 C192.8776245,154 164,182.6537781 164,218 C164,253.3462219 192.8776245,282 228.5,282 C264.1223755,282 293,253.3462219 293,218 Z M293,218" style="fill:none;stroke:rgb(198,217,241);stroke-width:5" clip-path="url(#clip5)" />
<clipPath id="clip6"><path d="M177,192 L281,192 L281,245 L177,245 L177,192 Z" /></clipPath>
<path d="M204.0917969,206.0341797 L209.1894531,206.0341797 L209.1894531,212.6962891 C208.3632813,212.9658203 207.5854492,213.1547852 206.855957,213.2631836 C206.1264648,213.371582 205.3808594,213.4257813 204.6191406,213.4257813 C202.6796875,213.4257813 201.1987305,212.855957 200.1762695,211.7163086 C199.1538086,210.5766602 198.6425781,208.9404297 198.6425781,206.8076172 C198.6425781,204.7333984 199.2358398,203.1162109 200.4223633,201.9560547 C201.6088867,200.7958984 203.2539063,200.2158203 205.3574219,200.2158203 C206.6757813,200.2158203 207.9472656,200.4794922 209.171875,201.0068359 L208.2666016,203.1865234 C207.3291016,202.7177734 206.3535156,202.4833984 205.3398438,202.4833984 C204.1621094,202.4833984 203.21875,202.8789063 202.5097656,203.6699219 C201.8007813,204.4609375 201.4462891,205.5244141 201.4462891,206.8603516 C201.4462891,208.2548828 201.7319336,209.3198242 202.3032227,210.0551758 C202.8745117,210.7905273 203.7050781,211.1582031 204.7949219,211.1582031 C205.3632813,211.1582031 205.9404297,211.0996094 206.5263672,210.9824219 L206.5263672,208.3017578 L204.0917969,208.3017578 Z M216.1064453,205.1464844 C215.5380859,205.1464844 215.0927734,205.3266602 214.7705078,205.6870117 C214.4482422,206.0473633 214.2636719,206.5585938 214.2167969,207.2207031 L217.9785156,207.2207031 C217.9667969,206.5585938 217.7939453,206.0473633 217.4599609,205.6870117 C217.1259766,205.3266602 216.6748047,205.1464844 216.1064453,205.1464844 Z M216.484375,213.4257813 C214.9023438,213.4257813 213.6660156,212.9892578 212.7753906,212.1162109 C211.8847656,211.2431641 211.4394531,210.0068359 211.4394531,208.4072266 C211.4394531,206.7607422 211.8510742,205.487793 212.6743164,204.5883789 C213.4975586,203.6889648 214.6357422,203.2392578 216.0888672,203.2392578 C217.4775391,203.2392578 218.5585938,203.6347656 219.3320313,204.4257813 C220.1054688,205.2167969 220.4921875,206.3095703 220.4921875,207.7041016 L220.4921875,209.0048828 L214.1552734,209.0048828 C214.1845703,209.7666016 214.4101563,210.3613281 214.8320313,210.7890625 C215.2539063,211.2167969 215.8457031,211.4306641 216.6074219,211.4306641 C217.1992188,211.4306641 217.7587891,211.3691406 218.2861328,211.2460938 C218.8134766,211.1230469 219.3642578,210.9267578 219.9384766,210.6572266 L219.9384766,212.7314453 C219.4697266,212.9658203 218.96875,213.1401367 218.4355469,213.2543945 C217.9023438,213.3686523 217.2519531,213.4257813 216.484375,213.4257813 Z M225.3525391,213.25 L222.671875,213.25 L222.671875,199.5742188 L225.3525391,199.5742188 Z M234.4052734,213.25 L233.8867188,211.9140625 L233.8164063,211.9140625 C233.3652344,212.4824219 232.9008789,212.8764648 232.4233398,213.0961914 C231.9458008,213.315918 231.3232422,213.4257813 230.5556641,213.4257813 C229.6123047,213.4257813 228.8696289,213.15625 228.3276367,212.6171875 C227.7856445,212.078125 227.5146484,211.3105469 227.5146484,210.3144531 C227.5146484,209.2714844 227.8793945,208.5024414 228.6088867,208.0073242 C229.3383789,207.512207 230.4384766,207.2382813 231.9091797,207.1855469 L233.6142578,207.1328125 L233.6142578,206.7021484 C233.6142578,205.7060547 233.1044922,205.2080078 232.0849609,205.2080078 C231.2998047,205.2080078 230.3769531,205.4453125 229.3164063,205.9199219 L228.4287109,204.109375 C229.5595703,203.5175781 230.8134766,203.2216797 232.1904297,203.2216797 C233.5087891,203.2216797 234.5195313,203.5087891 235.2226563,204.0830078 C235.9257813,204.6572266 236.2773438,205.5302734 236.2773438,206.7021484 L236.2773438,213.25 Z M233.6142578,208.6972656 L232.5771484,208.7324219 C231.7978516,208.7558594 231.2177734,208.8964844 230.8369141,209.1542969 C230.4560547,209.4121094 230.265625,209.8046875 230.265625,210.3320313 C230.265625,211.0878906 230.6992188,211.4658203 231.5664063,211.4658203 C232.1875,211.4658203 232.684082,211.2871094 233.0561523,210.9296875 C233.4282227,210.5722656 233.6142578,210.0976563 233.6142578,209.5058594 Z M242.1484375,213.4257813 C240.9941406,213.4257813 240.0874023,212.9775391 239.4282227,212.0810547 C238.769043,211.1845703 238.4394531,209.9423828 238.4394531,208.3544922 C238.4394531,206.7431641 238.7749023,205.487793 239.4458008,204.5883789 C240.1166992,203.6889648 241.0410156,203.2392578 242.21875,203.2392578 C243.4550781,203.2392578 244.3984375,203.7197266 245.0488281,204.6806641 L245.1367188,204.6806641 C245.0019531,203.9482422 244.9345703,203.2949219 244.9345703,202.7207031 L244.9345703,199.5742188 L247.6240234,199.5742188 L247.6240234,213.25 L245.5673828,213.25 L245.0488281,211.9755859 L244.9345703,211.9755859 C244.3251953,212.9423828 243.3964844,213.4257813 242.1484375,213.4257813 Z M243.0888672,211.2900391 C243.7744141,211.2900391 244.2768555,211.0908203 244.5961914,210.6923828 C244.9155273,210.2939453 245.0898438,209.6171875 245.1191406,208.6621094 L245.1191406,208.3720703 C245.1191406,207.3173828 244.956543,206.5615234 244.6313477,206.1044922 C244.3061523,205.6474609 243.7773438,205.4189453 243.0449219,205.4189453 C242.4472656,205.4189453 241.9829102,205.6723633 241.6518555,206.1791992 C241.3208008,206.6860352 241.1552734,207.4228516 241.1552734,208.3896484 C241.1552734,209.3564453 241.3222656,210.081543 241.65625,210.5649414 C241.9902344,211.0483398 242.4677734,211.2900391 243.0888672,211.2900391 Z M252.5634766,208.3193359 C252.5634766,209.2919922 252.7231445,210.0273438 253.0424805,210.5253906 C253.3618164,211.0234375 253.8818359,211.2724609 254.6025391,211.2724609 C255.3173828,211.2724609 255.831543,211.0249023 256.1450195,210.5297852 C256.4584961,210.034668 256.6152344,209.2978516 256.6152344,208.3193359 C256.6152344,207.3466797 256.4570313,206.6171875 256.140625,206.1308594 C255.8242188,205.6445313 255.3056641,205.4013672 254.5849609,205.4013672 C253.8701172,205.4013672 253.3544922,205.6430664 253.0380859,206.1264648 C252.7216797,206.6098633 252.5634766,207.3408203 252.5634766,208.3193359 Z M259.3574219,208.3193359 C259.3574219,209.9189453 258.9355469,211.1699219 258.0917969,212.0722656 C257.2480469,212.9746094 256.0732422,213.4257813 254.5673828,213.4257813 C253.6240234,213.4257813 252.7919922,213.2192383 252.0712891,212.8061523 C251.3505859,212.3930664 250.796875,211.7998047 250.4101563,211.0263672 C250.0234375,210.2529297 249.8300781,209.3505859 249.8300781,208.3193359 C249.8300781,206.7138672 250.2490234,205.4658203 251.0869141,204.5751953 C251.9248047,203.6845703 253.1025391,203.2392578 254.6201172,203.2392578 C255.5634766,203.2392578 256.3955078,203.4443359 257.1162109,203.8544922 C257.8369141,204.2646484 258.390625,204.8535156 258.7773438,205.6210938 C259.1640625,206.3886719 259.3574219,207.2880859 259.3574219,208.3193359 Z M260.1660156,213.25" style="fill:rgb(255,255,255);stroke:none" clip-path="url(#clip6)" />
<clipPath id="clip7"><path d="M177,192 L281,192 L281,245 L177,245 L177,192 Z" /></clipPath>
<path d="M186.7114258,237.25 L183.6176758,227.1689453 L183.5385742,227.1689453 C183.6499023,229.2197418 183.7055664,230.5878906 183.7055664,231.2734375 L183.7055664,237.25 L181.2709961,237.25 L181.2709961,224.4003906 L184.9799805,224.4003906 L188.0209961,234.2265625 L188.0737305,234.2265625 L191.2993164,224.4003906 L195.0083008,224.4003906 L195.0083008,237.25 L192.4682617,237.25 L192.4682617,231.1679688 C192.4682617,230.8808594 192.4726563,230.5498047 192.4814453,230.1748047 C192.4902344,229.7998047 192.5297852,228.8037109 192.6000977,227.1865234 L192.5209961,227.1865234 L189.2075195,237.25 Z M197.9174805,224.8837891 C197.9174805,224.0107422 198.4038086,223.5742188 199.3764648,223.5742188 C200.3491211,223.5742188 200.8354492,224.0107422 200.8354492,224.8837891 C200.8354492,225.2998047 200.7138672,225.6235352 200.4707031,225.8549805 C200.2275391,226.0864258 199.862793,226.2021484 199.3764648,226.2021484 C198.4038086,226.2021484 197.9174805,225.7626953 197.9174805,224.8837891 Z M200.7124023,237.25 L198.0317383,237.25 L198.0317383,227.4238281 L200.7124023,227.4238281 Z M206.2055664,237.25 L203.5249023,237.25 L203.5249023,223.5742188 L206.2055664,223.5742188 Z M211.5932617,231.90625 L212.762207,230.4121094 L215.5131836,227.4238281 L218.5366211,227.4238281 L214.6342773,231.6865234 L218.7739258,237.25 L215.6801758,237.25 L212.8500977,233.2685547 L211.6987305,234.1914063 L211.6987305,237.25 L209.0180664,237.25 L209.0180664,223.5742188 L211.6987305,223.5742188 L211.6987305,229.6738281 L211.5581055,231.90625 Z M232.6518555,233.6816406 C232.6518555,234.8417969 232.234375,235.7558594 231.3994141,236.4238281 C230.5644531,237.0917969 229.402832,237.4257813 227.9145508,237.4257813 C226.543457,237.4257813 225.3305664,237.1679688 224.2758789,236.6523438 L224.2758789,234.1210938 C225.1430664,234.5078125 225.8769531,234.7802734 226.4775391,234.9384766 C227.078125,235.0966797 227.6274414,235.1757813 228.1254883,235.1757813 C228.7231445,235.1757813 229.1816406,235.0615234 229.5009766,234.8330078 C229.8203125,234.6044922 229.9799805,234.2646484 229.9799805,233.8134766 C229.9799805,233.5615234 229.909668,233.3374023 229.769043,233.1411133 C229.628418,232.9448242 229.421875,232.7558594 229.1494141,232.5742188 C228.8769531,232.3925781 228.3217773,232.1025391 227.4838867,231.7041016 C226.6987305,231.3349609 226.1098633,230.9804688 225.7172852,230.640625 C225.324707,230.3007813 225.0112305,229.9052734 224.7768555,229.4541016 C224.5424805,229.0029297 224.425293,228.4755859 224.425293,227.8720703 C224.425293,226.7353516 224.8105469,225.8417969 225.5810547,225.1914063 C226.3515625,224.5410156 227.4165039,224.2158203 228.7758789,224.2158203 C229.4438477,224.2158203 230.0810547,224.2949219 230.6875,224.453125 C231.2939453,224.6113281 231.9282227,224.8339844 232.590332,225.1210938 L231.7114258,227.2392578 C231.0258789,226.9580078 230.4589844,226.7617188 230.0107422,226.6503906 C229.5625,226.5390625 229.121582,226.4833984 228.6879883,226.4833984 C228.1723633,226.4833984 227.7768555,226.6035156 227.5014648,226.84375 C227.2260742,227.0839844 227.0883789,227.3974609 227.0883789,227.7841797 C227.0883789,228.0244141 227.144043,228.2338867 227.2553711,228.4125977 C227.3666992,228.5913086 227.5439453,228.7641602 227.7871094,228.9311523 C228.0302734,229.0981445 228.605957,229.3984375 229.5141602,229.8320313 C230.715332,230.40625 231.5385742,230.9819336 231.9838867,231.559082 C232.4291992,232.1362305 232.6518555,232.84375 232.6518555,233.6816406 Z M243.840332,237.25 L241.159668,237.25 L241.159668,231.5107422 C241.159668,230.0927734 240.6323242,229.3837891 239.5776367,229.3837891 C238.8276367,229.3837891 238.2856445,229.6386719 237.9516602,230.1484375 C237.6176758,230.6582031 237.4506836,231.484375 237.4506836,232.6269531 L237.4506836,237.25 L234.7700195,237.25 L234.7700195,223.5742188 L237.4506836,223.5742188 L237.4506836,226.3603516 C237.4506836,226.5771484 237.4301758,227.0869141 237.3891602,227.8896484 L237.3276367,228.6806641 L237.4682617,228.6806641 C238.065918,227.7197266 239.0151367,227.2392578 240.315918,227.2392578 C241.4702148,227.2392578 242.3461914,227.5498047 242.9438477,228.1708984 C243.5415039,228.7919922 243.840332,229.6826172 243.840332,230.8427734 Z M252.840332,237.25 L252.3217773,235.9140625 L252.2514648,235.9140625 C251.800293,236.4824219 251.3359375,236.8764648 250.8583984,237.0961914 C250.3808594,237.315918 249.7583008,237.4257813 248.9907227,237.4257813 C248.0473633,237.4257813 247.3046875,237.15625 246.7626953,236.6171875 C246.2207031,236.078125 245.949707,235.3105469 245.949707,234.3144531 C245.949707,233.2714844 246.3144531,232.5024414 247.0439453,232.0073242 C247.7734375,231.512207 248.8735352,231.2382813 250.3442383,231.1855469 L252.0493164,231.1328125 L252.0493164,230.7021484 C252.0493164,229.7060547 251.5395508,229.2080078 250.5200195,229.2080078 C249.7348633,229.2080078 248.8120117,229.4453125 247.7514648,229.9199219 L246.8637695,228.109375 C247.9946289,227.5175781 249.2485352,227.2216797 250.6254883,227.2216797 C251.9438477,227.2216797 252.9545898,227.5087891 253.6577148,228.0830078 C254.3608398,228.6572266 254.7124023,229.5302734 254.7124023,230.7021484 L254.7124023,237.25 Z M252.0493164,232.6972656 L251.012207,232.7324219 C250.2329102,232.7558594 249.652832,232.8964844 249.2719727,233.1542969 C248.8911133,233.4121094 248.7006836,233.8046875 248.7006836,234.3320313 C248.7006836,235.0878906 249.1342773,235.4658203 250.0014648,235.4658203 C250.6225586,235.4658203 251.1191406,235.2871094 251.4912109,234.9296875 C251.8632813,234.5722656 252.0493164,234.0976563 252.0493164,233.5058594 Z M260.0473633,231.90625 L261.2163086,230.4121094 L263.9672852,227.4238281 L266.9907227,227.4238281 L263.0883789,231.6865234 L267.2280273,237.25 L264.1342773,237.25 L261.3041992,233.2685547 L260.152832,234.1914063 L260.152832,237.25 L257.472168,237.25 L257.472168,223.5742188 L260.152832,223.5742188 L260.152832,229.6738281 L260.012207,231.90625 Z M272.3432617,229.1464844 C271.7749023,229.1464844 271.3295898,229.3266602 271.0073242,229.6870117 C270.6850586,230.0473633 270.5004883,230.5585938 270.4536133,231.2207031 L274.215332,231.2207031 C274.2036133,230.5585938 274.0307617,230.0473633 273.6967773,229.6870117 C273.362793,229.3266602 272.9116211,229.1464844 272.3432617,229.1464844 Z M272.7211914,237.4257813 C271.1391602,237.4257813 269.902832,236.9892578 269.012207,236.1162109 C268.121582,235.2431641 267.6762695,234.0068512 267.6762695,232.4072266 C267.6762695,230.7607269 268.0878906,229.487793 268.9111328,228.5883789 C269.734375,227.6889648 270.8725586,227.2392578 272.3256836,227.2392578 C273.7143555,227.2392578 274.7954102,227.6347656 275.5688477,228.4257813 C276.3422852,229.2167969 276.7290039,230.3095703 276.7290039,231.7041016 L276.7290039,233.0048828 L270.3920898,233.0048828 C270.4213867,233.7666016 270.6469727,234.3613281 271.0688477,234.7890625 C271.4907227,235.2167969 272.0825195,235.4306641 272.8442383,235.4306641 C273.4360352,235.4306641 273.9956055,235.3691406 274.5229492,235.2460938 C275.050293,235.1230469 275.6010742,234.9267578 276.175293,234.6572266 L276.175293,236.7314453 C275.706543,236.9658203 275.2055664,237.1401367 274.6723633,237.2543945 C274.1391602,237.3686523 273.4887695,237.4257813 272.7211914,237.4257813 Z M277.5024414,237.25" style="fill:rgb(255,255,255);stroke:none" clip-path="url(#clip7)" />
<clipPath id="clip8"><path d="M140,742 L234,742 L234,837 L140,837 L140,742 Z" /></clipPath>
<path d="M229,789 C229,765.25177 209.9721069,746 186.5,746 C163.0278931,746 144,765.25177 144,789 C144,812.74823 163.0278931,832 186.5,832 C209.9721069,832 229,812.74823 229,789 Z M229,789" style="fill:rgb(75,172,198);stroke:none" clip-path="url(#clip8)" />
<clipPath id="clip9"><path d="M140,742 L234,742 L234,837 L140,837 L140,742 Z" /></clipPath>
<path d="M229,789 C229,765.25177 209.9721069,746 186.5,746 C163.0278931,746 144,765.25177 144,789 C144,812.74823 163.0278931,832 186.5,832 C209.9721069,832 229,812.74823 229,789 Z M229,789" style="fill:none;stroke:rgb(198,217,241);stroke-width:5" clip-path="url(#clip9)" />
<clipPath id="clip10"><path d="M153,775 L221,775 L221,804 L153,804 L153,775 Z" /></clipPath>
<path d="M157.0478516,783.4003906 L161.046875,783.4003906 C162.8691406,783.4003906 164.1918945,783.659668 165.0151367,784.1782227 C165.8383789,784.6967773 166.25,785.5214844 166.25,786.6523438 C166.25,787.4199219 166.0698242,788.0498047 165.7094727,788.5419922 C165.3491211,789.0341797 164.8701172,789.3300781 164.2724609,789.4296875 L164.2724609,789.5175781 C165.0869141,789.6992188 165.6743164,790.0390625 166.034668,790.5371094 C166.3950195,791.0351563 166.5751953,791.6972656 166.5751953,792.5234375 C166.5751953,793.6953125 166.1518555,794.609375 165.3051758,795.265625 C164.4584961,795.921875 163.3085938,796.25 161.8554688,796.25 L157.0478516,796.25 Z M159.7724609,788.4892578 L161.3544922,788.4892578 C162.0927734,788.4892578 162.6274414,788.375 162.9584961,788.1464844 C163.2895508,787.9179688 163.4550781,787.5400391 163.4550781,787.0126953 C163.4550781,786.5205078 163.2749023,786.1674805 162.9145508,785.9536133 C162.5541992,785.7397461 161.984375,785.6328125 161.2050781,785.6328125 L159.7724609,785.6328125 Z M159.7724609,790.6513672 L159.7724609,794 L161.5478516,794 C162.2978516,794 162.8515625,793.8564453 163.2089844,793.5693359 C163.5664063,793.2822266 163.7451172,792.8427734 163.7451172,792.2509766 C163.7451172,791.1845703 162.9833984,790.6513672 161.4599609,790.6513672 Z M173,788.1464844 C172.4316406,788.1464844 171.9863281,788.3266602 171.6640625,788.6870117 C171.3417969,789.0473633 171.1572266,789.5585938 171.1103516,790.2207031 L174.8720703,790.2207031 C174.8603516,789.5585938 174.6875,789.0473633 174.3535156,788.6870117 C174.0195313,788.3266602 173.5683594,788.1464844 173,788.1464844 Z M173.3779297,796.4257813 C171.7958984,796.4257813 170.5595703,795.9892578 169.6689453,795.1162109 C168.7783203,794.2431641 168.3330078,793.0068359 168.3330078,791.4072266 C168.3330078,789.7607422 168.7446289,788.487793 169.5678711,787.5883789 C170.3911133,786.6889648 171.5292969,786.2392578 172.9824219,786.2392578 C174.3710938,786.2392578 175.4521484,786.6347656 176.2255859,787.4257813 C176.9990234,788.2167969 177.3857422,789.3095703 177.3857422,790.7041016 L177.3857422,792.0048828 L171.0488281,792.0048828 C171.078125,792.7666016 171.3037109,793.3613281 171.7255859,793.7890625 C172.1474609,794.2167969 172.7392578,794.4306641 173.5009766,794.4306641 C174.0927734,794.4306641 174.6523438,794.3691406 175.1796875,794.2460938 C175.7070313,794.1230469 176.2578125,793.9267578 176.8320313,793.6572266 L176.8320313,795.7314453 C176.3632813,795.9658203 175.8623047,796.1401367 175.3291016,796.2543945 C174.7958984,796.3686523 174.1455078,796.4257813 173.3779297,796.4257813 Z M185.0322266,786.2392578 C186.1923828,786.2392578 187.1005859,786.6918945 187.7568359,787.597168 C188.4130859,788.5024414 188.7412109,789.7431641 188.7412109,791.3193359 C188.7412109,792.9423828 188.402832,794.1992188 187.7260742,795.0898438 C187.0493164,795.9804688 186.1279297,796.4257813 184.9619141,796.4257813 C183.8076172,796.4257813 182.9023438,796.0068359 182.2460938,795.1689453 L182.0615234,795.1689453 L181.6132813,796.25 L179.5654297,796.25 L179.5654297,782.5742188 L182.2460938,782.5742188 L182.2460938,785.7558594 C182.2460938,786.1601563 182.2109375,786.8076172 182.140625,787.6982422 L182.2460938,787.6982422 C182.8730469,786.7255859 183.8017578,786.2392578 185.0322266,786.2392578 Z M184.1708984,788.3837891 C183.5087891,788.3837891 183.0253906,788.5874023 182.7207031,788.9946289 C182.4160156,789.4018555 182.2578125,790.0742188 182.2460938,791.0117188 L182.2460938,791.3017578 C182.2460938,792.3564453 182.402832,793.1123047 182.7163086,793.5693359 C183.0297852,794.0263672 183.5263672,794.2548828 184.2060547,794.2548828 C184.7568359,794.2548828 185.1948242,794.0014648 185.5200195,793.4946289 C185.8452148,792.987793 186.0078125,792.2509766 186.0078125,791.2841797 C186.0078125,790.3173828 185.84375,789.5922852 185.515625,789.1088867 C185.1875,788.6254883 184.7392578,788.3837891 184.1708984,788.3837891 Z M190.8417969,783.8837891 C190.8417969,783.0107422 191.328125,782.5742188 192.3007813,782.5742188 C193.2734375,782.5742188 193.7597656,783.0107422 193.7597656,783.8837891 C193.7597656,784.2998047 193.6381836,784.6235352 193.3950195,784.8549805 C193.1518555,785.0864258 192.7871094,785.2021484 192.3007813,785.2021484 C191.328125,785.2021484 190.8417969,784.7626953 190.8417969,783.8837891 Z M193.6367188,796.25 L190.9560547,796.25 L190.9560547,786.4238281 L193.6367188,786.4238281 Z M199.5605469,796.4257813 C198.40625,796.4257813 197.4995117,795.9775391 196.840332,795.0810547 C196.1811523,794.1845703 195.8515625,792.9423828 195.8515625,791.3544922 C195.8515625,789.7431641 196.1870117,788.487793 196.8579102,787.5883789 C197.5288086,786.6889648 198.453125,786.2392578 199.6308594,786.2392578 C200.8671875,786.2392578 201.8105469,786.7197266 202.4609375,787.6806641 L202.5488281,787.6806641 C202.4140625,786.9482422 202.3466797,786.2949219 202.3466797,785.7207031 L202.3466797,782.5742188 L205.0361328,782.5742188 L205.0361328,796.25 L202.9794922,796.25 L202.4609375,794.9755859 L202.3466797,794.9755859 C201.7373047,795.9423828 200.8085938,796.4257813 199.5605469,796.4257813 Z M200.5009766,794.2900391 C201.1865234,794.2900391 201.6889648,794.0908203 202.0083008,793.6923828 C202.3276367,793.2939453 202.5019531,792.6171875 202.53125,791.6621094 L202.53125,791.3720703 C202.53125,790.3173828 202.3686523,789.5615234 202.043457,789.1044922 C201.7182617,788.6474609 201.1894531,788.4189453 200.4570313,788.4189453 C199.859375,788.4189453 199.3950195,788.6723633 199.0639648,789.1791992 C198.7329102,789.6860352 198.5673828,790.4228516 198.5673828,791.3896484 C198.5673828,792.3564453 198.734375,793.081543 199.0683594,793.5649414 C199.4023438,794.0483398 199.8798828,794.2900391 200.5009766,794.2900391 Z M214.0800781,796.25 L213.5615234,794.9140625 L213.4912109,794.9140625 C213.0400391,795.4824219 212.5756836,795.8764648 212.0981445,796.0961914 C211.6206055,796.315918 210.9980469,796.4257813 210.2304688,796.4257813 C209.2871094,796.4257813 208.5444336,796.15625 208.0024414,795.6171875 C207.4604492,795.078125 207.1894531,794.3105469 207.1894531,793.3144531 C207.1894531,792.2714844 207.5541992,791.5024414 208.2836914,791.0073242 C209.0131836,790.512207 210.1132813,790.2382813 211.5839844,790.1855469 L213.2890625,790.1328125 L213.2890625,789.7021484 C213.2890625,788.7060547 212.7792969,788.2080078 211.7597656,788.2080078 C210.9746094,788.2080078 210.0517578,788.4453125 208.9912109,788.9199219 L208.1035156,787.109375 C209.234375,786.5175781 210.4882813,786.2216797 211.8652344,786.2216797 C213.1835938,786.2216797 214.1943359,786.5087891 214.8974609,787.0830078 C215.6005859,787.6572266 215.9521484,788.5302734 215.9521484,789.7021484 L215.9521484,796.25 Z M213.2890625,791.6972656 L212.2519531,791.7324219 C211.4726563,791.7558594 210.8925781,791.8964844 210.5117188,792.1542969 C210.1308594,792.4121094 209.9404297,792.8046875 209.9404297,793.3320313 C209.9404297,794.0878906 210.3740234,794.4658203 211.2412109,794.4658203 C211.8623047,794.4658203 212.3588867,794.2871094 212.730957,793.9296875 C213.1030273,793.5722656 213.2890625,793.0976563 213.2890625,792.5058594 Z M217.3056641,796.25" style="fill:rgb(255,255,255);stroke:none" clip-path="url(#clip10)" />
<clipPath id="clip11"><path d="M886,274 L978,274 L978,367 L886,367 L886,274 Z" /></clipPath>
<path d="M973,320 C973,296.8040466 954.4197998,278 931.5,278 C908.5802002,278 890,296.8040466 890,320 C890,343.1959534 908.5802002,362 931.5,362 C954.4197998,362 973,343.1959534 973,320 Z M973,320" style="fill:rgb(247,150,70);stroke:none" clip-path="url(#clip11)" />
<clipPath id="clip12"><path d="M886,274 L978,274 L978,367 L886,367 L886,274 Z" /></clipPath>
<path d="M973,320 C973,296.8040466 954.4197998,278 931.5,278 C908.5802002,278 890,296.8040466 890,320 C890,343.1959534 908.5802002,362 931.5,362 C954.4197998,362 973,343.1959534 973,320 Z M973,320" style="fill:none;stroke:rgb(198,217,241);stroke-width:5" clip-path="url(#clip12)" />
<clipPath id="clip13"><path d="M899,306 L965,306 L965,335 L899,335 L899,306 Z" /></clipPath>
<path d="M902.887207,314.4003906 L906.8862305,314.4003906 C908.7084961,314.4003906 910.03125,314.659668 910.8544922,315.1782227 C911.6777344,315.6967773 912.0893555,316.5214844 912.0893555,317.6523438 C912.0893555,318.4199219 911.9091797,319.0498047 911.5488281,319.5419922 C911.1884766,320.0341797 910.7094727,320.3300781 910.1118164,320.4296875 L910.1118164,320.5175781 C910.9262695,320.6992188 911.5136719,321.0390625 911.8740234,321.5371094 C912.234375,322.0351563 912.4145508,322.6972656 912.4145508,323.5234375 C912.4145508,324.6953125 911.9912109,325.609375 911.1445313,326.265625 C910.2978516,326.921875 909.1479492,327.25 907.6948242,327.25 L902.887207,327.25 Z M905.6118164,319.4892578 L907.1938477,319.4892578 C907.9321289,319.4892578 908.4667969,319.375 908.7978516,319.1464844 C909.1289063,318.9179688 909.2944336,318.5400391 909.2944336,318.0126953 C909.2944336,317.5205078 909.1142578,317.1674805 908.7539063,316.9536133 C908.3935547,316.7397461 907.8237305,316.6328125 907.0444336,316.6328125 L905.6118164,316.6328125 Z M905.6118164,321.6513672 L905.6118164,325 L907.387207,325 C908.137207,325 908.690918,324.8564453 909.0483398,324.5693359 C909.4057617,324.2822266 909.5844727,323.8427734 909.5844727,323.2509766 C909.5844727,322.1845703 908.8227539,321.6513672 907.2993164,321.6513672 Z M920.2543945,317.2392578 C920.6176758,317.2392578 920.9194336,317.265625 921.159668,317.3183594 L920.9575195,319.8320313 C920.7407227,319.7734375 920.4770508,319.7441406 920.1665039,319.7441406 C919.3110352,319.7441406 918.6445313,319.9638672 918.1669922,320.4033203 C917.6894531,320.8427734 917.4506836,321.4580078 917.4506836,322.2490234 L917.4506836,327.25 L914.7700195,327.25 L914.7700195,317.4238281 L916.800293,317.4238281 L917.1958008,319.0761719 L917.3276367,319.0761719 C917.6323242,318.5253906 918.0439453,318.081543 918.5625,317.7446289 C919.0810547,317.4077148 919.6450195,317.2392578 920.2543945,317.2392578 Z M922.8295898,314.8837891 C922.8295898,314.0107422 923.315918,313.5742188 924.2885742,313.5742188 C925.2612305,313.5742188 925.7475586,314.0107422 925.7475586,314.8837891 C925.7475586,315.2998047 925.6259766,315.6235352 925.3828125,315.8549805 C925.1396484,316.0864258 924.7749023,316.2021484 924.2885742,316.2021484 C923.315918,316.2021484 922.8295898,315.7626953 922.8295898,314.8837891 Z M925.6245117,327.25 L922.9438477,327.25 L922.9438477,317.4238281 L925.6245117,317.4238281 Z M937.5073242,327.25 L934.8266602,327.25 L934.8266602,321.5107422 C934.8266602,320.8017578 934.7006836,320.2700195 934.4487305,319.9155273 C934.1967773,319.5610352 933.7954102,319.3837891 933.2446289,319.3837891 C932.4946289,319.3837891 931.9526367,319.6342773 931.6186523,320.1352539 C931.284668,320.6362305 931.1176758,321.4667969 931.1176758,322.6269531 L931.1176758,327.25 L928.4370117,327.25 L928.4370117,317.4238281 L930.4848633,317.4238281 L930.8452148,318.6806641 L930.9946289,318.6806641 C931.293457,318.2060547 931.7050781,317.847168 932.2294922,317.6040039 C932.7539063,317.3608398 933.3500977,317.2392578 934.0180664,317.2392578 C935.1606445,317.2392578 936.027832,317.5483398 936.6196289,318.1665039 C937.2114258,318.784668 937.5073242,319.6767578 937.5073242,320.8427734 Z M943.378418,327.4257813 C942.2241211,327.4257813 941.3173828,326.9775391 940.6582031,326.0810547 C939.9990234,325.1845703 939.6694336,323.9423828 939.6694336,322.3544922 C939.6694336,320.7431641 940.0048828,319.487793 940.6757813,318.5883789 C941.3466797,317.6889648 942.2709961,317.2392578 943.4487305,317.2392578 C944.6850586,317.2392578 945.628418,317.7197266 946.2788086,318.6806641 L946.3666992,318.6806641 C946.2319336,317.9482422 946.1645508,317.2949219 946.1645508,316.7207031 L946.1645508,313.5742188 L948.8540039,313.5742188 L948.8540039,327.25 L946.7973633,327.25 L946.2788086,325.9755859 L946.1645508,325.9755859 C945.5551758,326.9423828 944.6264648,327.4257813 943.378418,327.4257813 Z M944.3188477,325.2900391 C945.0043945,325.2900391 945.5068359,325.0908203 945.8261719,324.6923828 C946.1455078,324.2939453 946.3198242,323.6171875 946.3491211,322.6621094 L946.3491211,322.3720703 C946.3491211,321.3173828 946.1865234,320.5615234 945.8613281,320.1044922 C945.5361328,319.6474609 945.0073242,319.4189453 944.2749023,319.4189453 C943.6772461,319.4189453 943.2128906,319.6723633 942.8818359,320.1791992 C942.5507813,320.6860352 942.3852539,321.4228516 942.3852539,322.3896484 C942.3852539,323.3564453 942.5522461,324.081543 942.8862305,324.5649414 C943.2202148,325.0483398 943.6977539,325.2900391 944.3188477,325.2900391 Z M955.7270508,319.1464844 C955.1586914,319.1464844 954.7133789,319.3266602 954.3911133,319.6870117 C954.0688477,320.0473633 953.8842773,320.5585938 953.8374023,321.2207031 L957.5991211,321.2207031 C957.5874023,320.5585938 957.4145508,320.0473633 957.0805664,319.6870117 C956.746582,319.3266602 956.2954102,319.1464844 955.7270508,319.1464844 Z M956.1049805,327.4257813 C954.5229492,327.4257813 953.2866211,326.9892578 952.3959961,326.1162109 C951.5053711,325.2431641 951.0600586,324.0068359 951.0600586,322.4072266 C951.0600586,320.7607422 951.4716797,319.487793 952.2949219,318.5883789 C953.1181641,317.6889648 954.2563477,317.2392578 955.7094727,317.2392578 C957.0981445,317.2392578 958.1791992,317.6347656 958.9526367,318.4257813 C959.7260742,319.2167969 960.112793,320.3095703 960.112793,321.7041016 L960.112793,323.0048828 L953.7758789,323.0048828 C953.8051758,323.7666016 954.0307617,324.3613281 954.4526367,324.7890625 C954.8745117,325.2167969 955.4663086,325.4306641 956.2280273,325.4306641 C956.8198242,325.4306641 957.3793945,325.3691406 957.9067383,325.2460938 C958.434082,325.1230469 958.9848633,324.9267578 959.559082,324.6572266 L959.559082,326.7314453 C959.090332,326.9658203 958.5893555,327.1401367 958.0561523,327.2543945 C957.5229492,327.3686523 956.8725586,327.4257813 956.1049805,327.4257813 Z M960.8862305,327.25" style="fill:rgb(255,255,255);stroke:none" clip-path="url(#clip13)" />
<clipPath id="clip14"><path d="M550,14 L639,14 L639,103 L550,103 L550,14 Z" /></clipPath>
<path d="M634,58 C634,35.9085999 616.0913696,18 594,18 C571.9086304,18 554,35.9085999 554,58 C554,80.0914001 571.9086304,98 594,98 C616.0913696,98 634,80.0914001 634,58 Z M634,58" style="fill:rgb(155,187,89);stroke:none" clip-path="url(#clip14)" />
<clipPath id="clip15"><path d="M550,14 L639,14 L639,103 L550,103 L550,14 Z" /></clipPath>
<path d="M634,58 C634,35.9085999 616.0913696,18 594,18 C571.9086304,18 554,35.9085999 554,58 C554,80.0914001 571.9086304,98 594,98 C616.0913696,98 634,80.0914001 634,58 Z M634,58" style="fill:none;stroke:rgb(198,217,241);stroke-width:5" clip-path="url(#clip15)" />
<clipPath id="clip16"><path d="M563,44 L626,44 L626,73 L563,73 L563,44 Z" /></clipPath>
<path d="M575.5913086,52.4003906 L578.3422852,52.4003906 L573.9741211,65.25 L571.003418,65.25 L566.644043,52.4003906 L569.3950195,52.4003906 L571.8120117,60.046875 C571.9467773,60.4980469 572.0859375,61.0239258 572.2294922,61.6245117 C572.3730469,62.2250977 572.4624023,62.6425781 572.4975586,62.8769531 C572.5620117,62.3378906 572.7817383,61.3945313 573.1567383,60.046875 Z M583.4575195,57.1464844 C582.8891602,57.1464844 582.4438477,57.3266602 582.121582,57.6870117 C581.7993164,58.0473633 581.6147461,58.5585938 581.5678711,59.2207031 L585.3295898,59.2207031 C585.3178711,58.5585938 585.1450195,58.0473633 584.8110352,57.6870117 C584.4770508,57.3266602 584.0258789,57.1464844 583.4575195,57.1464844 Z M583.8354492,65.4257813 C582.253418,65.4257813 581.0170898,64.9892578 580.1264648,64.1162109 C579.2358398,63.2431641 578.7905273,62.0068359 578.7905273,60.4072266 C578.7905273,58.7607422 579.2021484,57.487793 580.0253906,56.5883789 C580.8486328,55.6889648 581.9868164,55.2392578 583.4399414,55.2392578 C584.8286133,55.2392578 585.909668,55.6347656 586.6831055,56.4257813 C587.456543,57.2167969 587.8432617,58.3095703 587.8432617,59.7041016 L587.8432617,61.0048828 L581.5063477,61.0048828 C581.5356445,61.7666016 581.7612305,62.3613281 582.1831055,62.7890625 C582.6049805,63.2167969 583.1967773,63.4306641 583.9584961,63.4306641 C584.550293,63.4306641 585.1098633,63.3691406 585.637207,63.2460938 C586.1645508,63.1230469 586.715332,62.9267578 587.2895508,62.6572266 L587.2895508,64.7314453 C586.8208008,64.9658203 586.3198242,65.1401367 585.7866211,65.2543945 C585.253418,65.3686523 584.6030273,65.4257813 583.8354492,65.4257813 Z M599.0932617,65.25 L596.4125977,65.25 L596.4125977,59.5107422 C596.4125977,58.8017578 596.2866211,58.2700195 596.034668,57.9155273 C595.7827148,57.5610352 595.3813477,57.3837891 594.8305664,57.3837891 C594.0805664,57.3837891 593.5385742,57.6342773 593.2045898,58.1352539 C592.8706055,58.6362305 592.7036133,59.4667969 592.7036133,60.6269531 L592.7036133,65.25 L590.0229492,65.25 L590.0229492,55.4238281 L592.0708008,55.4238281 L592.4311523,56.6806641 L592.5805664,56.6806641 C592.8793945,56.2060547 593.2910156,55.847168 593.8154297,55.6040039 C594.3398438,55.3608398 594.9360352,55.2392578 595.6040039,55.2392578 C596.746582,55.2392578 597.6137695,55.5483398 598.2055664,56.1665039 C598.7973633,56.784668 599.0932617,57.6767578 599.0932617,58.8427734 Z M604.9643555,65.4257813 C603.8100586,65.4257813 602.9033203,64.9775391 602.2441406,64.0810547 C601.5849609,63.1845703 601.2553711,61.9423828 601.2553711,60.3544922 C601.2553711,58.7431641 601.5908203,57.487793 602.2617188,56.5883789 C602.9326172,55.6889648 603.8569336,55.2392578 605.034668,55.2392578 C606.2709961,55.2392578 607.2143555,55.7197266 607.8647461,56.6806641 L607.9526367,56.6806641 C607.8178711,55.9482422 607.7504883,55.2949219 607.7504883,54.7207031 L607.7504883,51.5742188 L610.4399414,51.5742188 L610.4399414,65.25 L608.3833008,65.25 L607.8647461,63.9755859 L607.7504883,63.9755859 C607.1411133,64.9423828 606.2124023,65.4257813 604.9643555,65.4257813 Z M605.9047852,63.2900391 C606.590332,63.2900391 607.0927734,63.0908203 607.4121094,62.6923828 C607.7314453,62.2939453 607.9057617,61.6171875 607.9350586,60.6621094 L607.9350586,60.3720703 C607.9350586,59.3173828 607.7724609,58.5615234 607.4472656,58.1044922 C607.1220703,57.6474609 606.5932617,57.4189453 605.8608398,57.4189453 C605.2631836,57.4189453 604.7988281,57.6723633 604.4677734,58.1791992 C604.1367188,58.6860352 603.9711914,59.4228516 603.9711914,60.3896484 C603.9711914,61.3564453 604.1381836,62.081543 604.472168,62.5649414 C604.8061523,63.0483398 605.2836914,63.2900391 605.9047852,63.2900391 Z M619.4838867,65.25 L618.965332,63.9140625 L618.8950195,63.9140625 C618.4438477,64.4824219 617.9794922,64.8764648 617.5019531,65.0961914 C617.0244141,65.315918 616.4018555,65.4257813 615.6342773,65.4257813 C614.690918,65.4257813 613.9482422,65.15625 613.40625,64.6171875 C612.8642578,64.078125 612.5932617,63.3105469 612.5932617,62.3144531 C612.5932617,61.2714844 612.9580078,60.5024414 613.6875,60.0073242 C614.4169922,59.512207 615.5170898,59.2382813 616.987793,59.1855469 L618.6928711,59.1328125 L618.6928711,58.7021484 C618.6928711,57.7060547 618.1831055,57.2080078 617.1635742,57.2080078 C616.378418,57.2080078 615.4555664,57.4453125 614.3950195,57.9199219 L613.5073242,56.109375 C614.6381836,55.5175781 615.8920898,55.2216797 617.269043,55.2216797 C618.5874023,55.2216797 619.5981445,55.5087891 620.3012695,56.0830078 C621.0043945,56.6572266 621.355957,57.5302734 621.355957,58.7021484 L621.355957,65.25 Z M618.6928711,60.6972656 L617.6557617,60.7324219 C616.8764648,60.7558594 616.2963867,60.8964844 615.9155273,61.1542969 C615.534668,61.4121094 615.3442383,61.8046875 615.3442383,62.3320313 C615.3442383,63.0878906 615.777832,63.4658203 616.6450195,63.4658203 C617.2661133,63.4658203 617.7626953,63.2871094 618.1347656,62.9296875 C618.5068359,62.5722656 618.6928711,62.0976563 618.6928711,61.5058594 Z M622.7094727,65.25" style="fill:rgb(255,255,255);stroke:none" clip-path="url(#clip16)" />
<clipPath id="clip17"><path d="M788,741 L904,741 L904,856 L788,856 L788,741 Z" /></clipPath>
<path d="M899,798 C899,768.7288818 875.0472412,745 845.5,745 C815.9527588,745 792,768.7288818 792,798 C792,827.2711182 815.9527588,851 845.5,851 C875.0472412,851 899,827.2711182 899,798 Z M899,798" style="fill:rgb(3,3,3);stroke:none" clip-path="url(#clip17)" />
<clipPath id="clip18"><path d="M788,741 L904,741 L904,856 L788,856 L788,741 Z" /></clipPath>
<path d="M899,798 C899,768.7288818 875.0472412,745 845.5,745 C815.9527588,745 792,768.7288818 792,798 C792,827.2711182 815.9527588,851 845.5,851 C875.0472412,851 899,827.2711182 899,798 Z M899,798" style="fill:none;stroke:rgb(198,217,241);stroke-width:5" clip-path="url(#clip18)" />
<clipPath id="clip19"><path d="M801,784 L891,784 L891,813 L801,813 L801,784 Z" /></clipPath>
<path d="M813.9912109,805.25 L813.0595703,802.1914063 L808.375,802.1914063 L807.4433594,805.25 L804.5078125,805.25 L809.0429688,792.3476563 L812.3740234,792.3476563 L816.9267578,805.25 Z M812.4091797,799.90625 C811.5478516,797.1347656 811.0629883,795.5673828 810.9545898,795.2041016 C810.8461914,794.8408203 810.7685547,794.5537109 810.7216797,794.3427734 C810.5283203,795.0927734 809.9746094,796.9472656 809.0605469,799.90625 Z M821.4443359,805.4257813 C820.2900391,805.4257813 819.3833008,804.9775391 818.7241211,804.0810547 C818.0649414,803.1845703 817.7353516,801.9423828 817.7353516,800.3544922 C817.7353516,798.7431641 818.0708008,797.487793 818.7416992,796.5883789 C819.4125977,795.6889648 820.3369141,795.2392578 821.5146484,795.2392578 C822.7509766,795.2392578 823.6943359,795.7197266 824.3447266,796.6806641 L824.4326172,796.6806641 C824.2978516,795.9482422 824.2304688,795.2949219 824.2304688,794.7207031 L824.2304688,791.5742188 L826.9199219,791.5742188 L826.9199219,805.25 L824.8632813,805.25 L824.3447266,803.9755859 L824.2304688,803.9755859 C823.6210938,804.9423828 822.6923828,805.4257813 821.4443359,805.4257813 Z M822.3847656,803.2900391 C823.0703125,803.2900391 823.5727539,803.0908203 823.8920898,802.6923828 C824.2114258,802.2939453 824.3857422,801.6171875 824.4150391,800.6621094 L824.4150391,800.3720703 C824.4150391,799.3173828 824.2524414,798.5615234 823.9272461,798.1044922 C823.6020508,797.6474609 823.0732422,797.4189453 822.3408203,797.4189453 C821.7431641,797.4189453 821.2788086,797.6723633 820.9477539,798.1791992 C820.6166992,798.6860352 820.4511719,799.4228516 820.4511719,800.3896484 C820.4511719,801.3564453 820.6181641,802.081543 820.9521484,802.5649414 C821.2861328,803.0483398 821.7636719,803.2900391 822.3847656,803.2900391 Z M829.609375,792.8837891 C829.609375,792.0107422 830.0957031,791.5742188 831.0683594,791.5742188 C832.0410156,791.5742188 832.5273438,792.0107422 832.5273438,792.8837891 C832.5273438,793.2998047 832.4057617,793.6235352 832.1625977,793.8549805 C831.9194336,794.0864258 831.5546875,794.2021484 831.0683594,794.2021484 C830.0957031,794.2021484 829.609375,793.7626953 829.609375,792.8837891 Z M832.4042969,805.25 L829.7236328,805.25 L829.7236328,795.4238281 L832.4042969,795.4238281 Z M839.2070313,805.4257813 C836.1484375,805.4257813 834.6191406,803.7470703 834.6191406,800.3896484 C834.6191406,798.7197266 835.0351563,797.4438477 835.8671875,796.5620117 C836.6992188,795.6801758 837.8916016,795.2392578 839.4443359,795.2392578 C840.5810547,795.2392578 841.6005859,795.4619141 842.5029297,795.9072266 L841.7119141,797.9814453 C841.2900391,797.8115234 840.8974609,797.6723633 840.5341797,797.5639648 C840.1708984,797.4555664 839.8076172,797.4013672 839.4443359,797.4013672 C838.0498047,797.4013672 837.3525391,798.3916016 837.3525391,800.3720703 C837.3525391,802.2939453 838.0498047,803.2548828 839.4443359,803.2548828 C839.9599609,803.2548828 840.4375,803.1860352 840.8769531,803.0483398 C841.3164063,802.9106445 841.7558594,802.6953125 842.1953125,802.4023438 L842.1953125,804.6962891 C841.7617188,804.9716797 841.3237305,805.1621094 840.8813477,805.2675781 C840.4389648,805.3730469 839.8808594,805.4257813 839.2070313,805.4257813 Z M844.3574219,792.8837891 C844.3574219,792.0107422 844.84375,791.5742188 845.8164063,791.5742188 C846.7890625,791.5742188 847.2753906,792.0107422 847.2753906,792.8837891 C847.2753906,793.2998047 847.1538086,793.6235352 846.9106445,793.8549805 C846.6674805,794.0864258 846.3027344,794.2021484 845.8164063,794.2021484 C844.84375,794.2021484 844.3574219,793.7626953 844.3574219,792.8837891 Z M847.1523438,805.25 L844.4716797,805.25 L844.4716797,795.4238281 L847.1523438,795.4238281 Z M852.1005859,800.3193359 C852.1005859,801.2919922 852.2602539,802.0273438 852.5795898,802.5253906 C852.8989258,803.0234375 853.4189453,803.2724609 854.1396484,803.2724609 C854.8544922,803.2724609 855.3686523,803.0249023 855.6821289,802.5297852 C855.9956055,802.034668 856.1523438,801.2978516 856.1523438,800.3193359 C856.1523438,799.3466797 855.9941406,798.6171875 855.6777344,798.1308594 C855.3613281,797.6445313 854.8427734,797.4013672 854.1220703,797.4013672 C853.4072266,797.4013672 852.8916016,797.6430664 852.5751953,798.1264648 C852.2587891,798.6098633 852.1005859,799.3408203 852.1005859,800.3193359 Z M858.8945313,800.3193359 C858.8945313,801.9189453 858.4726563,803.1699219 857.6289063,804.0722656 C856.7851563,804.9746094 855.6103516,805.4257813 854.1044922,805.4257813 C853.1611328,805.4257813 852.3291016,805.2192383 851.6083984,804.8061523 C850.8876953,804.3930664 850.3339844,803.7998047 849.9472656,803.0263672 C849.5605469,802.2529297 849.3671875,801.3505859 849.3671875,800.3193359 C849.3671875,798.7138672 849.7861328,797.4658203 850.6240234,796.5751953 C851.4619141,795.6845703 852.6396484,795.2392578 854.1572266,795.2392578 C855.1005859,795.2392578 855.9326172,795.4443359 856.6533203,795.8544922 C857.3740234,796.2646484 857.9277344,796.8535156 858.3144531,797.6210938 C858.7011719,798.3886719 858.8945313,799.2880859 858.8945313,800.3193359 Z M870.1796875,805.25 L867.4990234,805.25 L867.4990234,799.5107422 C867.4990234,798.8017578 867.3730469,798.2700195 867.1210938,797.9155273 C866.8691406,797.5610352 866.4677734,797.3837891 865.9169922,797.3837891 C865.1669922,797.3837891 864.625,797.6342773 864.2910156,798.1352539 C863.9570313,798.6362305 863.7900391,799.4667969 863.7900391,800.6269531 L863.7900391,805.25 L861.109375,805.25 L861.109375,795.4238281 L863.1572266,795.4238281 L863.5175781,796.6806641 L863.6669922,796.6806641 C863.9658203,796.2060547 864.3774414,795.847168 864.9018555,795.6040039 C865.4262695,795.3608398 866.0224609,795.2392578 866.6904297,795.2392578 C867.8330078,795.2392578 868.7001953,795.5483398 869.2919922,796.1665039 C869.8837891,796.784668 870.1796875,797.6767578 870.1796875,798.8427734 Z M879.1796875,805.25 L878.6611328,803.9140625 L878.5908203,803.9140625 C878.1396484,804.4824219 877.675293,804.8764648 877.1977539,805.0961914 C876.7202148,805.315918 876.0976563,805.4257813 875.3300781,805.4257813 C874.3867188,805.4257813 873.644043,805.15625 873.1020508,804.6171875 C872.5600586,804.078125 872.2890625,803.3105469 872.2890625,802.3144531 C872.2890625,801.2714844 872.6538086,800.5024414 873.3833008,800.0073242 C874.112793,799.512207 875.2128906,799.2382813 876.6835938,799.1855469 L878.3886719,799.1328125 L878.3886719,798.7021484 C878.3886719,797.7060547 877.8789063,797.2080078 876.859375,797.2080078 C876.0742188,797.2080078 875.1513672,797.4453125 874.0908203,797.9199219 L873.203125,796.109375 C874.3339844,795.5175781 875.5878906,795.2216797 876.9648438,795.2216797 C878.2832031,795.2216797 879.2939453,795.5087891 879.9970703,796.0830078 C880.7001953,796.6572266 881.0517578,797.5302734 881.0517578,798.7021484 L881.0517578,805.25 Z M878.3886719,800.6972656 L877.3515625,800.7324219 C876.5722656,800.7558594 875.9921875,800.8964844 875.6113281,801.1542969 C875.2304688,801.4121094 875.0400391,801.8046875 875.0400391,802.3320313 C875.0400391,803.0878906 875.4736328,803.4658203 876.3408203,803.4658203 C876.9619141,803.4658203 877.4584961,803.2871094 877.8305664,802.9296875 C878.2026367,802.5722656 878.3886719,802.0976563 878.3886719,801.5058594 Z M886.4921875,805.25 L883.8115234,805.25 L883.8115234,791.5742188 L886.4921875,791.5742188 Z M887.8984375,805.25" style="fill:rgb(255,255,255);stroke:none" clip-path="url(#clip19)" />
<clipPath id="clip20"><path d="M443,734 L640,734 L640,931 L443,931 L443,734 Z" /></clipPath>
<path d="M635,832 C635,780.0852051 592.9147949,738 541,738 C489.0852356,738 447,780.0852051 447,832 C447,883.9147949 489.0852356,926 541,926 C592.9147949,926 635,883.9147949 635,832 Z M635,832" style="fill:rgb(51,102,255);stroke:none" clip-path="url(#clip20)" />
<clipPath id="clip21"><path d="M443,734 L640,734 L640,931 L443,931 L443,734 Z" /></clipPath>
<path d="M635,832 C635,780.0852051 592.9147949,738 541,738 C489.0852356,738 447,780.0852051 447,832 C447,883.9147949 489.0852356,926 541,926 C592.9147949,926 635,883.9147949 635,832 Z M635,832" style="fill:none;stroke:rgb(198,217,241);stroke-width:5" clip-path="url(#clip21)" />
<clipPath id="clip22"><path d="M455,818 L628,818 L628,847 L455,847 L455,818 Z" /></clipPath>
<path d="M467.6948242,837.1757813 L466.7631836,834.1171875 L462.0786133,834.1171875 L461.1469727,837.1757813 L458.2114258,837.1757813 L462.746582,824.2734375 L466.0776367,824.2734375 L470.6303711,837.1757813 Z M466.112793,831.8320313 C465.2514648,829.0605469 464.7666016,827.4931641 464.6582031,827.1298828 C464.5498047,826.7666016 464.472168,826.4794922 464.425293,826.2685547 C464.2319336,827.0185547 463.6782227,828.8730469 462.7641602,831.8320313 Z M476.0268555,837.3515625 C472.9682617,837.3515625 471.4389648,835.6728516 471.4389648,832.3154297 C471.4389648,830.6455078 471.8549805,829.3696289 472.6870117,828.487793 C473.519043,827.605957 474.7114258,827.1650391 476.2641602,827.1650391 C477.4008789,827.1650391 478.4204102,827.3876953 479.3227539,827.8330078 L478.5317383,829.9072266 C478.1098633,829.7373047 477.7172852,829.5981445 477.3540039,829.4897461 C476.9907227,829.3813477 476.6274414,829.3271484 476.2641602,829.3271484 C474.8696289,829.3271484 474.1723633,830.3173828 474.1723633,832.2978516 C474.1723633,834.2197266 474.8696289,835.1806641 476.2641602,835.1806641 C476.7797852,835.1806641 477.2573242,835.1118164 477.6967773,834.9741211 C478.1362305,834.8364258 478.5756836,834.6210938 479.0151367,834.328125 L479.0151367,836.6220703 C478.581543,836.8974609 478.1435547,837.0878906 477.7011719,837.1933594 C477.2587891,837.2988281 476.7006836,837.3515625 476.0268555,837.3515625 Z M483.4272461,832.2451172 C483.4272461,833.2177734 483.5869141,833.953125 483.90625,834.4511719 C484.2255859,834.9492188 484.7456055,835.1982422 485.4663086,835.1982422 C486.1811523,835.1982422 486.6953125,834.9506836 487.0087891,834.4555664 C487.3222656,833.9604492 487.4790039,833.2236328 487.4790039,832.2451172 C487.4790039,831.2724609 487.3208008,830.5429688 487.0043945,830.0566406 C486.6879883,829.5703125 486.1694336,829.3271484 485.4487305,829.3271484 C484.7338867,829.3271484 484.2182617,829.5688477 483.9018555,830.0522461 C483.5854492,830.5356445 483.4272461,831.2666016 483.4272461,832.2451172 Z M490.2211914,832.2451172 C490.2211914,833.8447266 489.7993164,835.0957031 488.9555664,835.9980469 C488.1118164,836.9003906 486.9370117,837.3515625 485.4311523,837.3515625 C484.487793,837.3515625 483.6557617,837.1450195 482.9350586,836.7319336 C482.2143555,836.3188477 481.6606445,835.7255859 481.2739258,834.9521484 C480.887207,834.1787109 480.6938477,833.2763672 480.6938477,832.2451172 C480.6938477,830.6396484 481.112793,829.3916016 481.9506836,828.5009766 C482.7885742,827.6103516 483.9663086,827.1650391 485.4838867,827.1650391 C486.4272461,827.1650391 487.2592773,827.3701172 487.9799805,827.7802734 C488.7006836,828.1904297 489.2543945,828.7792969 489.6411133,829.546875 C490.027832,830.3144531 490.2211914,831.2138672 490.2211914,832.2451172 Z M501.2338867,837.1757813 L498.5532227,837.1757813 L498.5532227,831.4365234 C498.5532227,830.7275391 498.4345703,830.1958008 498.1972656,829.8413086 C497.9599609,829.4868164 497.5864258,829.3095703 497.0766602,829.3095703 C496.3911133,829.3095703 495.8930664,829.5615234 495.5825195,830.0654297 C495.2719727,830.5693359 495.1166992,831.3984375 495.1166992,832.5527344 L495.1166992,837.1757813 L492.4360352,837.1757813 L492.4360352,827.3496094 L494.4838867,827.3496094 L494.8442383,828.6064453 L494.9936523,828.6064453 C495.2573242,828.1552734 495.6381836,827.8022461 496.1362305,827.5473633 C496.6342773,827.2924805 497.2055664,827.1650391 497.8500977,827.1650391 C499.3208008,827.1650391 500.3168945,827.6455078 500.8383789,828.6064453 L501.0756836,828.6064453 C501.3393555,828.1494141 501.7275391,827.7949219 502.2402344,827.5429688 C502.7529297,827.2910156 503.331543,827.1650391 503.9760742,827.1650391 C505.0893555,827.1650391 505.9316406,827.4506836 506.5029297,828.0219727 C507.0742188,828.5932617 507.3598633,829.5087891 507.3598633,830.7685547 L507.3598633,837.1757813 L504.6704102,837.1757813 L504.6704102,831.4365234 C504.6704102,830.7275391 504.5517578,830.1958008 504.3144531,829.8413086 C504.0771484,829.4868164 503.7036133,829.3095703 503.1938477,829.3095703 C502.5375977,829.3095703 502.046875,829.5439453 501.7216797,830.0126953 C501.3964844,830.4814453 501.2338867,831.2255859 501.2338867,832.2451172 Z M515.5073242,837.3515625 C514.3530273,837.3515625 513.4477539,836.9326172 512.7915039,836.0947266 L512.6508789,836.0947266 C512.7446289,836.9150391 512.7915039,837.3896484 512.7915039,837.5185547 L512.7915039,841.5 L510.1108398,841.5 L510.1108398,827.3496094 L512.2905273,827.3496094 L512.668457,828.6240234 L512.7915039,828.6240234 C513.418457,827.6513672 514.347168,827.1650391 515.5776367,827.1650391 C516.737793,827.1650391 517.6459961,827.6132813 518.3022461,828.5097656 C518.9584961,829.40625 519.2866211,830.6513672 519.2866211,832.2451172 C519.2866211,833.2939453 519.1328125,834.2050781 518.8251953,834.9785156 C518.5175781,835.7519531 518.0795898,836.3408203 517.5112305,836.7451172 C516.9428711,837.1494141 516.2749023,837.3515625 515.5073242,837.3515625 Z M514.7163086,829.3095703 C514.0541992,829.3095703 513.5708008,829.5131836 513.2661133,829.9204102 C512.9614258,830.3276367 512.8032227,831 512.7915039,831.9375 L512.7915039,832.2275391 C512.7915039,833.2822266 512.9482422,834.0380859 513.2617188,834.4951172 C513.5751953,834.9521484 514.0717773,835.1806641 514.7514648,835.1806641 C515.9526367,835.1806641 516.5532227,834.1904297 516.5532227,832.2099609 C516.5532227,831.2431641 516.4052734,830.5180664 516.109375,830.034668 C515.8134766,829.5512695 515.3491211,829.3095703 514.7163086,829.3095703 Z M527.7416992,837.1757813 L527.2231445,835.8398438 L527.152832,835.8398438 C526.7016602,836.4082031 526.2373047,836.8022461 525.7597656,837.0219727 C525.2822266,837.2416992 524.659668,837.3515625 523.8920898,837.3515625 C522.9487305,837.3515625 522.2060547,837.0820313 521.6640625,836.5429688 C521.1220703,836.0039063 520.8510742,835.2363281 520.8510742,834.2402344 C520.8510742,833.1972656 521.2158203,832.4282227 521.9453125,831.9331055 C522.6748047,831.4379883 523.7749023,831.1640625 525.2456055,831.1113281 L526.9506836,831.0585938 L526.9506836,830.6279297 C526.9506836,829.6318359 526.440918,829.1337891 525.4213867,829.1337891 C524.6362305,829.1337891 523.7133789,829.3710938 522.652832,829.8457031 L521.7651367,828.0351563 C522.8959961,827.4433594 524.1499023,827.1474609 525.5268555,827.1474609 C526.8452148,827.1474609 527.855957,827.4345703 528.559082,828.0087891 C529.262207,828.5830078 529.6137695,829.4560547 529.6137695,830.6279297 L529.6137695,837.1757813 Z M526.9506836,832.6230469 L525.9135742,832.6582031 C525.1342773,832.6816406 524.5541992,832.8222656 524.1733398,833.0800781 C523.7924805,833.3378906 523.6020508,833.7304688 523.6020508,834.2578125 C523.6020508,835.0136719 524.0356445,835.3916016 524.902832,835.3916016 C525.5239258,835.3916016 526.0205078,835.2128906 526.3925781,834.8554688 C526.7646484,834.4980469 526.9506836,834.0234375 526.9506836,833.4316406 Z M541.4438477,837.1757813 L538.7631836,837.1757813 L538.7631836,831.4365234 C538.7631836,830.7275391 538.637207,830.1958008 538.3852539,829.8413086 C538.1333008,829.4868164 537.7319336,829.3095703 537.1811523,829.3095703 C536.4311523,829.3095703 535.8891602,829.5600586 535.5551758,830.0610352 C535.2211914,830.5620117 535.0541992,831.3925781 535.0541992,832.5527344 L535.0541992,837.1757813 L532.3735352,837.1757813 L532.3735352,827.3496094 L534.4213867,827.3496094 L534.7817383,828.6064453 L534.9311523,828.6064453 C535.2299805,828.1318359 535.6416016,827.7729492 536.1660156,827.5297852 C536.6904297,827.2866211 537.2866211,827.1650391 537.9545898,827.1650391 C539.097168,827.1650391 539.9643555,827.4741211 540.5561523,828.0922852 C541.1479492,828.7104492 541.4438477,829.6025391 541.4438477,830.7685547 Z M553.2739258,837.1757813 L550.5932617,837.1757813 L550.5932617,831.4365234 C550.5932617,830.0185547 550.065918,829.3095703 549.0112305,829.3095703 C548.2612305,829.3095703 547.7192383,829.5644531 547.3852539,830.0742188 C547.0512695,830.5839844 546.8842773,831.4101563 546.8842773,832.5527344 L546.8842773,837.1757813 L544.2036133,837.1757813 L544.2036133,823.5 L546.8842773,823.5 L546.8842773,826.2861328 C546.8842773,826.5029297 546.8637695,827.0126953 546.8227539,827.8154297 L546.7612305,828.6064453 L546.9018555,828.6064453 C547.4995117,827.6455078 548.4487305,827.1650391 549.7495117,827.1650391 C550.9038086,827.1650391 551.7797852,827.4755859 552.3774414,828.0966797 C552.9750977,828.7177734 553.2739258,829.6083984 553.2739258,830.7685547 Z M562.2739258,837.1757813 L561.7553711,835.8398438 L561.6850586,835.8398438 C561.2338867,836.4082031 560.7695313,836.8022461 560.2919922,837.0219727 C559.8144531,837.2416992 559.1918945,837.3515625 558.4243164,837.3515625 C557.480957,837.3515625 556.7382813,837.0820313 556.1962891,836.5429688 C555.6542969,836.0039063 555.3833008,835.2363281 555.3833008,834.2402344 C555.3833008,833.1972656 555.7480469,832.4282227 556.4775391,831.9331055 C557.2070313,831.4379883 558.3071289,831.1640625 559.777832,831.1113281 L561.4829102,831.0585938 L561.4829102,830.6279297 C561.4829102,829.6318359 560.9731445,829.1337891 559.9536133,829.1337891 C559.168457,829.1337891 558.2456055,829.3710938 557.1850586,829.8457031 L556.2973633,828.0351563 C557.4282227,827.4433594 558.6821289,827.1474609 560.059082,827.1474609 C561.3774414,827.1474609 562.3881836,827.4345703 563.0913086,828.0087891 C563.7944336,828.5830078 564.1459961,829.4560547 564.1459961,830.6279297 L564.1459961,837.1757813 Z M561.4829102,832.6230469 L560.4458008,832.6582031 C559.6665039,832.6816406 559.0864258,832.8222656 558.7055664,833.0800781 C558.324707,833.3378906 558.1342773,833.7304688 558.1342773,834.2578125 C558.1342773,835.0136719 558.5678711,835.3916016 559.4350586,835.3916016 C560.0561523,835.3916016 560.5527344,835.2128906 560.9248047,834.8554688 C561.296875,834.4980469 561.4829102,834.0234375 561.4829102,833.4316406 Z M575.7036133,837.1757813 L573.0229492,837.1757813 L573.0229492,831.4365234 C573.0229492,830.7275391 572.9042969,830.1958008 572.6669922,829.8413086 C572.4296875,829.4868164 572.0561523,829.3095703 571.5463867,829.3095703 C570.8608398,829.3095703 570.362793,829.5615234 570.0522461,830.0654297 C569.7416992,830.5693359 569.5864258,831.3984375 569.5864258,832.5527344 L569.5864258,837.1757813 L566.9057617,837.1757813 L566.9057617,827.3496094 L568.9536133,827.3496094 L569.3139648,828.6064453 L569.4633789,828.6064453 C569.7270508,828.1552734 570.1079102,827.8022461 570.605957,827.5473633 C571.1040039,827.2924805 571.675293,827.1650391 572.3198242,827.1650391 C573.7905273,827.1650391 574.7866211,827.6455078 575.3081055,828.6064453 L575.5454102,828.6064453 C575.809082,828.1494141 576.1972656,827.7949219 576.7099609,827.5429688 C577.2226563,827.2910156 577.8012695,827.1650391 578.4458008,827.1650391 C579.559082,827.1650391 580.4013672,827.4506836 580.9726563,828.0219727 C581.5439453,828.5932617 581.8295898,829.5087891 581.8295898,830.7685547 L581.8295898,837.1757813 L579.1401367,837.1757813 L579.1401367,831.4365234 C579.1401367,830.7275391 579.0214844,830.1958008 578.7841797,829.8413086 C578.546875,829.4868164 578.1733398,829.3095703 577.6635742,829.3095703 C577.0073242,829.3095703 576.5166016,829.5439453 576.1914063,830.0126953 C575.8662109,830.4814453 575.7036133,831.2255859 575.7036133,832.2451172 Z M588.6499023,829.0722656 C588.081543,829.0722656 587.6362305,829.2524414 587.3139648,829.612793 C586.9916992,829.9731445 586.8071289,830.484375 586.7602539,831.1464844 L590.5219727,831.1464844 C590.5102539,830.484375 590.3374023,829.9731445 590.003418,829.612793 C589.6694336,829.2524414 589.2182617,829.0722656 588.6499023,829.0722656 Z M589.027832,837.3515625 C587.4458008,837.3515625 586.2094727,836.9150391 585.3188477,836.0419922 C584.4282227,835.1689453 583.9829102,833.9326172 583.9829102,832.3330078 C583.9829102,830.6865234 584.3945313,829.4135742 585.2177734,828.5141602 C586.0410156,827.6147461 587.1791992,827.1650391 588.6323242,827.1650391 C590.0209961,827.1650391 591.1020508,827.5605469 591.8754883,828.3515625 C592.6489258,829.1425781 593.0356445,830.2353516 593.0356445,831.6298828 L593.0356445,832.9306641 L586.6987305,832.9306641 C586.7280273,833.6923828 586.9536133,834.2871094 587.3754883,834.7148438 C587.7973633,835.1425781 588.3891602,835.3564453 589.1508789,835.3564453 C589.7426758,835.3564453 590.3022461,835.2949219 590.8295898,835.171875 C591.3569336,835.0488281 591.9077148,834.8525391 592.4819336,834.5830078 L592.4819336,836.6572266 C592.0131836,836.8916016 591.512207,837.065918 590.9790039,837.1801758 C590.4458008,837.2944336 589.7954102,837.3515625 589.027832,837.3515625 Z M604.2856445,837.1757813 L601.6049805,837.1757813 L601.6049805,831.4365234 C601.6049805,830.7275391 601.4790039,830.1958008 601.2270508,829.8413086 C600.9750977,829.4868164 600.5737305,829.3095703 600.0229492,829.3095703 C599.2729492,829.3095703 598.730957,829.5600586 598.3969727,830.0610352 C598.0629883,830.5620117 597.8959961,831.3925781 597.8959961,832.5527344 L597.8959961,837.1757813 L595.215332,837.1757813 L595.215332,827.3496094 L597.2631836,827.3496094 L597.6235352,828.6064453 L597.7729492,828.6064453 C598.0717773,828.1318359 598.4833984,827.7729492 599.0078125,827.5297852 C599.5322266,827.2866211 600.128418,827.1650391 600.7963867,827.1650391 C601.9389648,827.1650391 602.8061523,827.4741211 603.3979492,828.0922852 C603.9897461,828.7104492 604.2856445,829.6025391 604.2856445,830.7685547 Z M611.1850586,835.2158203 C611.6538086,835.2158203 612.2163086,835.1132813 612.8725586,834.9082031 L612.8725586,836.9033203 C612.2045898,837.2021484 611.3842773,837.3515625 610.4116211,837.3515625 C609.3393555,837.3515625 608.5585938,837.0805664 608.0693359,836.5385742 C607.5800781,835.996582 607.3354492,835.1835938 607.3354492,834.0996094 L607.3354492,829.3623047 L606.0522461,829.3623047 L606.0522461,828.2285156 L607.5288086,827.3320313 L608.3022461,825.2578125 L610.0161133,825.2578125 L610.0161133,827.3496094 L612.7670898,827.3496094 L612.7670898,829.3623047 L610.0161133,829.3623047 L610.0161133,834.0996094 C610.0161133,834.4804688 610.1230469,834.7617188 610.3369141,834.9433594 C610.5507813,835.125 610.8334961,835.2158203 611.1850586,835.2158203 Z M616.9946289,832.2451172 C616.9946289,833.2177734 617.1542969,833.953125 617.4736328,834.4511719 C617.7929688,834.9492188 618.3129883,835.1982422 619.0336914,835.1982422 C619.7485352,835.1982422 620.2626953,834.9506836 620.5761719,834.4555664 C620.8896484,833.9604492 621.0463867,833.2236328 621.0463867,832.2451172 C621.0463867,831.2724609 620.8881836,830.5429688 620.5717773,830.0566406 C620.2553711,829.5703125 619.7368164,829.3271484 619.0161133,829.3271484 C618.3012695,829.3271484 617.7856445,829.5688477 617.4692383,830.0522461 C617.152832,830.5356445 616.9946289,831.2666016 616.9946289,832.2451172 Z M623.7885742,832.2451172 C623.7885742,833.8447266 623.3666992,835.0957031 622.5229492,835.9980469 C621.6791992,836.9003906 620.5043945,837.3515625 618.9985352,837.3515625 C618.0551758,837.3515625 617.2231445,837.1450195 616.5024414,836.7319336 C615.7817383,836.3188477 615.2280273,835.7255859 614.8413086,834.9521484 C614.4545898,834.1787109 614.2612305,833.2763672 614.2612305,832.2451172 C614.2612305,830.6396484 614.6801758,829.3916016 615.5180664,828.5009766 C616.355957,827.6103516 617.5336914,827.1650391 619.0512695,827.1650391 C619.9946289,827.1650391 620.8266602,827.3701172 621.5473633,827.7802734 C622.2680664,828.1904297 622.8217773,828.7792969 623.2084961,829.546875 C623.5952148,830.3144531 623.7885742,831.2138672 623.7885742,832.2451172 Z M624.597168,837.1757813" style="fill:rgb(255,255,255);stroke:none" clip-path="url(#clip22)" />
<clipPath id="clip23"><path d="M915,491 L1025,491 L1025,600 L915,600 L915,491 Z" /></clipPath>
<path d="M1020,545 C1020,517.3857422 997.3903809,495 969.5,495 C941.6096191,495 919,517.3857422 919,545 C919,572.6142578 941.6096191,595 969.5,595 C997.3903809,595 1020,572.6142578 1020,545 Z M1020,545" style="fill:rgb(153,102,51);stroke:none" clip-path="url(#clip23)" />
<clipPath id="clip24"><path d="M915,491 L1025,491 L1025,600 L915,600 L915,491 Z" /></clipPath>
<path d="M1020,545 C1020,517.3857422 997.3903809,495 969.5,495 C941.6096191,495 919,517.3857422 919,545 C919,572.6142578 941.6096191,595 969.5,595 C997.3903809,595 1020,572.6142578 1020,545 Z M1020,545" style="fill:none;stroke:rgb(198,217,241);stroke-width:5" clip-path="url(#clip24)" />
<clipPath id="clip25"><path d="M934,519 L1006,519 L1006,572 L934,572 L934,519 Z" /></clipPath>
<path d="M941.2641602,531.3730469 L942.1606445,531.3730469 C942.9985352,531.3730469 943.6254883,531.2075195 944.0415039,530.8764648 C944.4575195,530.5454102 944.6655273,530.0634766 944.6655273,529.4306641 C944.6655273,528.7919922 944.4912109,528.3203125 944.1425781,528.015625 C943.7939453,527.7109375 943.2475586,527.5585938 942.503418,527.5585938 L941.2641602,527.5585938 Z M947.4165039,529.3339844 C947.4165039,530.7167969 946.984375,531.7744141 946.1201172,532.5068359 C945.2558594,533.2392578 944.0268555,533.6054688 942.4331055,533.6054688 L941.2641602,533.6054688 L941.2641602,538.1757813 L938.5395508,538.1757813 L938.5395508,525.3261719 L942.644043,525.3261719 C944.2026367,525.3261719 945.3876953,525.6616211 946.1992188,526.3325195 C947.0107422,527.003418 947.4165039,528.0039063 947.4165039,529.3339844 Z M955.1157227,528.1650391 C955.4790039,528.1650391 955.7807617,528.1914063 956.0209961,528.2441406 L955.8188477,530.7578125 C955.6020508,530.6992188 955.3383789,530.6699219 955.027832,530.6699219 C954.1723633,530.6699219 953.5058594,530.8896484 953.0283203,531.3291016 C952.5507813,531.7685547 952.3120117,532.3837891 952.3120117,533.1748047 L952.3120117,538.1757813 L949.6313477,538.1757813 L949.6313477,528.3496094 L951.6616211,528.3496094 L952.0571289,530.0019531 L952.1889648,530.0019531 C952.4936523,529.4511719 952.9052734,529.0073242 953.4238281,528.6704102 C953.9423828,528.3334961 954.5063477,528.1650391 955.1157227,528.1650391 Z M959.5805664,533.2451172 C959.5805664,534.2177734 959.7402344,534.953125 960.0595703,535.4511719 C960.3789063,535.9492188 960.8989258,536.1982422 961.6196289,536.1982422 C962.3344727,536.1982422 962.8486328,535.9506836 963.1621094,535.4555664 C963.4755859,534.9604492 963.6323242,534.2236328 963.6323242,533.2451172 C963.6323242,532.2724609 963.4741211,531.5429688 963.1577148,531.0566406 C962.8413086,530.5703125 962.3227539,530.3271484 961.6020508,530.3271484 C960.887207,530.3271484 960.371582,530.5688477 960.0551758,531.0522461 C959.7387695,531.5356445 959.5805664,532.2666016 959.5805664,533.2451172 Z M966.3745117,533.2451172 C966.3745117,534.8447266 965.9526367,536.0957031 965.1088867,536.9980469 C964.2651367,537.9003906 963.090332,538.3515625 961.5844727,538.3515625 C960.6411133,538.3515625 959.809082,538.1450195 959.0883789,537.7319336 C958.3676758,537.3188477 957.8139648,536.7255859 957.4272461,535.9521484 C957.0405273,535.1787109 956.847168,534.2763672 956.847168,533.2451172 C956.847168,531.6396484 957.2661133,530.3916016 958.1040039,529.5009766 C958.9418945,528.6103516 960.1196289,528.1650391 961.637207,528.1650391 C962.5805664,528.1650391 963.4125977,528.3701172 964.1333008,528.7802734 C964.8540039,529.1904297 965.4077148,529.7792969 965.7944336,530.546875 C966.1811523,531.3144531 966.3745117,532.2138672 966.3745117,533.2451172 Z M967.7983398,542.5 C967.112793,542.5 966.5239258,542.4267578 966.0317383,542.2802734 L966.0317383,540.1708984 C966.4418945,540.2822266 966.8608398,540.3378906 967.2885742,540.3378906 C967.7397461,540.3378906 968.0693359,540.2119141 968.2773438,539.9599609 C968.4853516,539.7080078 968.5893555,539.3359375 968.5893555,538.84375 L968.5893555,528.3496094 L971.2700195,528.3496094 L971.2700195,539.2392578 C971.2700195,540.2822266 970.9682617,541.0864258 970.3647461,541.6518555 C969.7612305,542.2172852 968.9057617,542.5 967.7983398,542.5 Z M968.4750977,525.8095703 C968.4750977,524.9365234 968.9614258,524.5 969.934082,524.5 C970.9067383,524.5 971.3930664,524.9365234 971.3930664,525.8095703 C971.3930664,526.2255859 971.2714844,526.5493164 971.0283203,526.7807617 C970.7851563,527.012207 970.4204102,527.1279297 969.934082,527.1279297 C968.9614258,527.1279297 968.4750977,526.6884766 968.4750977,525.8095703 Z M978.1518555,530.0722656 C977.5834961,530.0722656 977.1381836,530.2524414 976.815918,530.612793 C976.4936523,530.9731445 976.309082,531.484375 976.262207,532.1464844 L980.0239258,532.1464844 C980.012207,531.484375 979.8393555,530.9731445 979.5053711,530.612793 C979.1713867,530.2524414 978.7202148,530.0722656 978.1518555,530.0722656 Z M978.5297852,538.3515625 C976.9477539,538.3515625 975.7114258,537.9150391 974.8208008,537.0419922 C973.9301758,536.1689453 973.4848633,534.9326172 973.4848633,533.3330078 C973.4848633,531.6865234 973.8964844,530.4135742 974.7197266,529.5141602 C975.5429688,528.6147461 976.6811523,528.1650391 978.1342773,528.1650391 C979.5229492,528.1650391 980.6040039,528.5605469 981.3774414,529.3515625 C982.1508789,530.1425781 982.5375977,531.2353516 982.5375977,532.6298828 L982.5375977,533.9306641 L976.2006836,533.9306641 C976.2299805,534.6923828 976.4555664,535.2871094 976.8774414,535.7148438 C977.2993164,536.1425781 977.8911133,536.3564453 978.652832,536.3564453 C979.2446289,536.3564453 979.8041992,536.2949219 980.331543,536.171875 C980.8588867,536.0488281 981.409668,535.8525391 981.9838867,535.5830078 L981.9838867,537.6572266 C981.5151367,537.8916016 981.0141602,538.065918 980.480957,538.1801758 C979.9477539,538.2944336 979.2973633,538.3515625 978.5297852,538.3515625 Z M988.8569336,536.2158203 C989.3256836,536.2158203 989.8881836,536.1132813 990.5444336,535.9082031 L990.5444336,537.9033203 C989.8764648,538.2021484 989.0561523,538.3515625 988.0834961,538.3515625 C987.0112305,538.3515625 986.2304688,538.0805664 985.7412109,537.5385742 C985.2519531,536.996582 985.0073242,536.1835938 985.0073242,535.0996094 L985.0073242,530.3623047 L983.7241211,530.3623047 L983.7241211,529.2285156 L985.2006836,528.3320313 L985.9741211,526.2578125 L987.6879883,526.2578125 L987.6879883,528.3496094 L990.4389648,528.3496094 L990.4389648,530.3623047 L987.6879883,530.3623047 L987.6879883,535.0996094 C987.6879883,535.4804688 987.7949219,535.7617188 988.0087891,535.9433594 C988.2226563,536.125 988.5053711,536.2158203 988.8569336,536.2158203 Z M994.6665039,533.2451172 C994.6665039,534.2177734 994.8261719,534.953125 995.1455078,535.4511719 C995.4648438,535.9492188 995.9848633,536.1982422 996.7055664,536.1982422 C997.4204102,536.1982422 997.9345703,535.9506836 998.2480469,535.4555664 C998.5615234,534.9604492 998.7182617,534.2236328 998.7182617,533.2451172 C998.7182617,532.2724609 998.5600586,531.5429688 998.2436523,531.0566406 C997.9272461,530.5703125 997.4086914,530.3271484 996.6879883,530.3271484 C995.9731445,530.3271484 995.4575195,530.5688477 995.1411133,531.0522461 C994.824707,531.5356445 994.6665039,532.2666016 994.6665039,533.2451172 Z M1001.4604492,533.2451172 C1001.4604492,534.8447266 1001.0385742,536.0957031 1000.1948242,536.9980469 C999.3510742,537.9003906 998.1762695,538.3515625 996.6704102,538.3515625 C995.7270508,538.3515625 994.8950195,538.1450195 994.1743164,537.7319336 C993.4536133,537.3188477 992.8999023,536.7255859 992.5131836,535.9521484 C992.1264648,535.1787109 991.9331055,534.2763672 991.9331055,533.2451172 C991.9331055,531.6396484 992.3520508,530.3916016 993.1899414,529.5009766 C994.027832,528.6103516 995.2055664,528.1650391 996.7231445,528.1650391 C997.6665039,528.1650391 998.4985352,528.3701172 999.2192383,528.7802734 C999.9399414,529.1904297 1000.4936523,529.7792969 1000.8803711,530.546875 C1001.2670898,531.3144531 1001.4604492,532.2138672 1001.4604492,533.2451172 Z M1002.269043,538.1757813" style="fill:rgb(255,255,255);stroke:none" clip-path="url(#clip25)" />
<clipPath id="clip26"><path d="M934,519 L1006,519 L1006,572 L934,572 L934,519 Z" /></clipPath>
<path d="M956.9658203,553.5405273 C955.9404297,553.5405273 955.1464844,553.9257813 954.5839844,554.6962891 C954.0214844,555.4667969 953.7402344,556.5405273 953.7402344,557.9174805 C953.7402344,560.7827148 954.8154297,562.215332 956.9658203,562.215332 C957.8681641,562.215332 958.9609375,561.9897461 960.2441406,561.5385742 L960.2441406,563.8237305 C959.1894531,564.2631836 958.0117188,564.4829102 956.7109375,564.4829102 C954.8417969,564.4829102 953.4121094,563.9160156 952.421875,562.7822266 C951.4316406,561.6484375 950.9365234,560.0209961 950.9365234,557.8999023 C950.9365234,556.5639648 951.1796875,555.3935547 951.6660156,554.3886719 C952.1523438,553.3837891 952.8510742,552.6132813 953.762207,552.0771484 C954.6733398,551.5410156 955.7412109,551.2729492 956.9658203,551.2729492 C958.2138672,551.2729492 959.4677734,551.574707 960.7275391,552.1782227 L959.8486328,554.3930664 C959.3681641,554.1645508 958.8847656,553.965332 958.3984375,553.7954102 C957.9121094,553.6254883 957.4345703,553.5405273 956.9658203,553.5405273 Z M969.0068359,564.3071289 L968.4882813,562.9711914 L968.4179688,562.9711914 C967.9667969,563.5395508 967.5024414,563.9335938 967.0249023,564.1533203 C966.5473633,564.3730469 965.9248047,564.4829102 965.1572266,564.4829102 C964.2138672,564.4829102 963.4711914,564.2133789 962.9291992,563.6743164 C962.387207,563.1352539 962.1162109,562.3676758 962.1162109,561.371582 C962.1162109,560.3286133 962.480957,559.5595703 963.2104492,559.0644531 C963.9399414,558.5693359 965.0400391,558.2954102 966.5107422,558.2426758 L968.2158203,558.1899414 L968.2158203,557.7592773 C968.2158203,556.7631836 967.7060547,556.2651367 966.6865234,556.2651367 C965.9013672,556.2651367 964.9785156,556.5024414 963.9179688,556.9770508 L963.0302734,555.1665039 C964.1611328,554.574707 965.4150391,554.2788086 966.7919922,554.2788086 C968.1103516,554.2788086 969.1210938,554.565918 969.8242188,555.1401367 C970.5273438,555.7143555 970.8789063,556.5874023 970.8789063,557.7592773 L970.8789063,564.3071289 Z M968.2158203,559.7543945 L967.1787109,559.7895508 C966.3994141,559.8129883 965.8193359,559.9536133 965.4384766,560.2114258 C965.0576172,560.4692383 964.8671875,560.8618164 964.8671875,561.3891602 C964.8671875,562.1450195 965.3007813,562.5229492 966.1679688,562.5229492 C966.7890625,562.5229492 967.2856445,562.3442383 967.6577148,561.9868164 C968.0297852,561.6293945 968.2158203,561.1547852 968.2158203,560.5629883 Z M979.0703125,556.4936523 L976.75,556.4936523 L976.75,564.3071289 L974.0693359,564.3071289 L974.0693359,556.4936523 L972.5927734,556.4936523 L972.5927734,555.2016602 L974.0693359,554.480957 L974.0693359,553.7602539 C974.0693359,552.6411133 974.3447266,551.8237305 974.8955078,551.3081055 C975.4462891,550.7924805 976.328125,550.534668 977.5410156,550.534668 C978.4667969,550.534668 979.2900391,550.6723633 980.0107422,550.9477539 L979.3251953,552.9165039 C978.7861328,552.746582 978.2880859,552.6616211 977.8310547,552.6616211 C977.4501953,552.6616211 977.1748047,552.7744141 977.0048828,553 C976.8349609,553.2255859 976.75,553.5141602 976.75,553.8657227 L976.75,554.480957 L979.0703125,554.480957 Z M984.6777344,556.2036133 C984.109375,556.2036133 983.6640625,556.3837891 983.3417969,556.7441406 C983.0195313,557.1044922 982.8349609,557.6157227 982.7880859,558.277832 L986.5498047,558.277832 C986.5380859,557.6157227 986.3652344,557.1044922 986.03125,556.7441406 C985.6972656,556.3837891 985.2460938,556.2036133 984.6777344,556.2036133 Z M985.0556641,564.4829102 C983.4736328,564.4829102 982.2373047,564.0463867 981.3466797,563.1733398 C980.4560547,562.300293 980.0107422,561.0639648 980.0107422,559.4643555 C980.0107422,557.8178711 980.4223633,556.5449219 981.2456055,555.6455078 C982.0688477,554.7460938 983.2070313,554.2963867 984.6601563,554.2963867 C986.0488281,554.2963867 987.1298828,554.6918945 987.9033203,555.4829102 C988.6767578,556.2739258 989.0634766,557.3666992 989.0634766,558.7612305 L989.0634766,560.0620117 L982.7265625,560.0620117 C982.7558594,560.8237305 982.9814453,561.418457 983.4033203,561.8461914 C983.8251953,562.2739258 984.4169922,562.487793 985.1787109,562.487793 C985.7705078,562.487793 986.3300781,562.4262695 986.8574219,562.3032227 C987.3847656,562.1801758 987.9355469,561.9838867 988.5097656,561.7143555 L988.5097656,563.7885742 C988.0410156,564.0229492 987.5400391,564.1972656 987.0068359,564.3115234 C986.4736328,564.4257813 985.8232422,564.4829102 985.0556641,564.4829102 Z M983.1308594,553.3999023 L983.1308594,553.1625977 C984.1386719,551.9907227 984.8271484,551.1088867 985.1962891,550.5170898 L988.2021484,550.5170898 L988.2021484,550.7016602 C987.8974609,551.0063477 987.3774414,551.4589844 986.6420898,552.0595703 C985.9067383,552.6601563 985.3310547,553.1069336 984.9150391,553.3999023 Z M989.8369141,564.3071289" style="fill:rgb(255,255,255);stroke:none" clip-path="url(#clip26)" />
<clipPath id="clip27"><path d="M14,392 L138,392 L138,517 L14,517 L14,392 Z" /></clipPath>
<path d="M133,454 C133,421.9674683 107.2563782,396 75.5,396 C43.7436218,396 18,421.9674683 18,454 C18,486.0325012 43.7436218,512 75.5,512 C107.2563782,512 133,486.0325012 133,454 Z M133,454" style="fill:rgb(192,80,77);stroke:none" clip-path="url(#clip27)" />
<clipPath id="clip28"><path d="M14,392 L138,392 L138,517 L14,517 L14,392 Z" /></clipPath>
<path d="M133,454 C133,421.9674683 107.2563782,396 75.5,396 C43.7436218,396 18,421.9674683 18,454 C18,486.0325012 43.7436218,512 75.5,512 C107.2563782,512 133,486.0325012 133,454 Z M133,454" style="fill:none;stroke:rgb(198,217,241);stroke-width:5" clip-path="url(#clip28)" />
<clipPath id="clip29"><path d="M26,440 L126,440 L126,469 L26,469 L26,440 Z" /></clipPath>
<path d="M38.1508789,457.6816406 C38.1508789,458.8417969 37.7333984,459.7558594 36.8984375,460.4238281 C36.0634766,461.0917969 34.9018555,461.4257813 33.4135742,461.4257813 C32.0424805,461.4257813 30.8295898,461.1679688 29.7749023,460.6523438 L29.7749023,458.1210938 C30.6420898,458.5078125 31.3759766,458.7802734 31.9765625,458.9384766 C32.5771484,459.0966797 33.1264648,459.1757813 33.6245117,459.1757813 C34.222168,459.1757813 34.6806641,459.0615234 35,458.8330078 C35.3193359,458.6044922 35.4790039,458.2646484 35.4790039,457.8134766 C35.4790039,457.5615234 35.4086914,457.3374023 35.2680664,457.1411133 C35.1274414,456.9448242 34.9208984,456.7558594 34.6484375,456.5742188 C34.3759766,456.3925781 33.8208008,456.1025391 32.9829102,455.7041016 C32.1977539,455.3349609 31.6088867,454.9804688 31.2163086,454.640625 C30.8237305,454.3007813 30.5102539,453.9052734 30.2758789,453.4541016 C30.0415039,453.0029297 29.9243164,452.4755859 29.9243164,451.8720703 C29.9243164,450.7353516 30.3095703,449.8417969 31.0800781,449.1914063 C31.8505859,448.5410156 32.9155273,448.2158203 34.2749023,448.2158203 C34.9428711,448.2158203 35.5800781,448.2949219 36.1865234,448.453125 C36.7929688,448.6113281 37.4272461,448.8339844 38.0893555,449.1210938 L37.2104492,451.2392578 C36.5249023,450.9580078 35.9580078,450.7617188 35.5097656,450.6503906 C35.0615234,450.5390625 34.6206055,450.4833984 34.1870117,450.4833984 C33.6713867,450.4833984 33.2758789,450.6035156 33.0004883,450.84375 C32.7250977,451.0839844 32.5874023,451.3974609 32.5874023,451.7841797 C32.5874023,452.0244141 32.6430664,452.2338867 32.7543945,452.4125977 C32.8657227,452.5913086 33.0429688,452.7641602 33.2861328,452.9311523 C33.5292969,453.0981445 34.1049805,453.3984375 35.0131836,453.8320313 C36.2143555,454.40625 37.0375977,454.9819336 37.4829102,455.559082 C37.9282227,456.1362305 38.1508789,456.84375 38.1508789,457.6816406 Z M46.5092773,461.25 L45.9907227,459.9140625 L45.9204102,459.9140625 C45.4692383,460.4824219 45.0048828,460.8764648 44.5273438,461.0961914 C44.0498047,461.315918 43.4272461,461.4257813 42.659668,461.4257813 C41.7163086,461.4257813 40.9736328,461.15625 40.4316406,460.6171875 C39.8896484,460.078125 39.6186523,459.3105469 39.6186523,458.3144531 C39.6186523,457.2714844 39.9833984,456.5024414 40.7128906,456.0073242 C41.4423828,455.512207 42.5424805,455.2382813 44.0131836,455.1855469 L45.7182617,455.1328125 L45.7182617,454.7021484 C45.7182617,453.7060547 45.2084961,453.2080078 44.1889648,453.2080078 C43.4038086,453.2080078 42.480957,453.4453125 41.4204102,453.9199219 L40.5327148,452.109375 C41.6635742,451.5175781 42.9174805,451.2216797 44.2944336,451.2216797 C45.612793,451.2216797 46.6235352,451.5087891 47.3266602,452.0830078 C48.0297852,452.6572266 48.3813477,453.5302734 48.3813477,454.7021484 L48.3813477,461.25 Z M45.7182617,456.6972656 L44.6811523,456.7324219 C43.9018555,456.7558594 43.3217773,456.8964844 42.940918,457.1542969 C42.5600586,457.4121094 42.3696289,457.8046875 42.3696289,458.3320313 C42.3696289,459.0878906 42.8032227,459.4658203 43.6704102,459.4658203 C44.2915039,459.4658203 44.7880859,459.2871094 45.1601563,458.9296875 C45.5322266,458.5722656 45.7182617,458.0976563 45.7182617,457.5058594 Z M60.2114258,461.25 L57.5307617,461.25 L57.5307617,455.5107422 C57.5307617,454.8017578 57.4047852,454.2700195 57.152832,453.9155273 C56.9008789,453.5610352 56.4995117,453.3837891 55.9487305,453.3837891 C55.1987305,453.3837891 54.6567383,453.6342773 54.3227539,454.1352539 C53.9887695,454.6362305 53.8217773,455.4667969 53.8217773,456.6269531 L53.8217773,461.25 L51.1411133,461.25 L51.1411133,451.4238281 L53.1889648,451.4238281 L53.5493164,452.6806641 L53.6987305,452.6806641 C53.9975586,452.2060547 54.4091797,451.847168 54.9335938,451.6040039 C55.4580078,451.3608398 56.0541992,451.2392578 56.722168,451.2392578 C57.8647461,451.2392578 58.7319336,451.5483398 59.3237305,452.1665039 C59.9155273,452.784668 60.2114258,453.6767578 60.2114258,454.8427734 Z M66.0825195,461.4257813 C64.9282227,461.4257813 64.0214844,460.9775391 63.3623047,460.0810547 C62.703125,459.1845703 62.3735352,457.9423828 62.3735352,456.3544922 C62.3735352,454.7431641 62.7089844,453.487793 63.3798828,452.5883789 C64.0507813,451.6889648 64.9750977,451.2392578 66.152832,451.2392578 C67.3891602,451.2392578 68.3325195,451.7197266 68.9829102,452.6806641 L69.0708008,452.6806641 C68.9360352,451.9482422 68.8686523,451.2949219 68.8686523,450.7207031 L68.8686523,447.5742188 L71.5581055,447.5742188 L71.5581055,461.25 L69.5014648,461.25 L68.9829102,459.9755859 L68.8686523,459.9755859 C68.2592773,460.9423828 67.3305664,461.4257813 66.0825195,461.4257813 Z M67.0229492,459.2900391 C67.7084961,459.2900391 68.2109375,459.0908203 68.5302734,458.6923828 C68.8496094,458.2939453 69.0239258,457.6171875 69.0532227,456.6621094 L69.0532227,456.3720703 C69.0532227,455.3173828 68.890625,454.5615234 68.5654297,454.1044922 C68.2402344,453.6474609 67.7114258,453.4189453 66.9790039,453.4189453 C66.3813477,453.4189453 65.9169922,453.6723633 65.5859375,454.1791992 C65.2548828,454.6860352 65.0893555,455.4228516 65.0893555,456.3896484 C65.0893555,457.3564453 65.2563477,458.081543 65.590332,458.5649414 C65.9243164,459.0483398 66.4018555,459.2900391 67.0229492,459.2900391 Z M81.3227539,461.25 L80.9624023,459.9931641 L80.8217773,459.9931641 C80.534668,460.4501953 80.1274414,460.8032227 79.6000977,461.0522461 C79.0727539,461.3012695 78.472168,461.4257813 77.7983398,461.4257813 C76.644043,461.4257813 75.7739258,461.1166992 75.1879883,460.4985352 C74.6020508,459.8803711 74.309082,458.9912109 74.309082,457.8310547 L74.309082,451.4238281 L76.9897461,451.4238281 L76.9897461,457.1630859 C76.9897461,457.8720703 77.1157227,458.4038086 77.3676758,458.7583008 C77.6196289,459.112793 78.0209961,459.2900391 78.5717773,459.2900391 C79.3217773,459.2900391 79.8637695,459.0395508 80.1977539,458.5385742 C80.5317383,458.0375977 80.6987305,457.2070313 80.6987305,456.046875 L80.6987305,451.4238281 L83.3793945,451.4238281 L83.3793945,461.25 Z M86.0776367,448.8837891 C86.0776367,448.0107422 86.5639648,447.5742188 87.5366211,447.5742188 C88.5092773,447.5742188 88.9956055,448.0107422 88.9956055,448.8837891 C88.9956055,449.2998047 88.8740234,449.6235352 88.6308594,449.8549805 C88.3876953,450.0864258 88.0229492,450.2021484 87.5366211,450.2021484 C86.5639648,450.2021484 86.0776367,449.7626953 86.0776367,448.8837891 Z M88.8725586,461.25 L86.1918945,461.25 L86.1918945,451.4238281 L88.8725586,451.4238281 Z M95.675293,461.4257813 C92.6166687,461.4257813 91.0874023,459.7471008 91.0874023,456.3896484 C91.0874023,454.7197266 91.503418,453.4438477 92.3354492,452.5620117 C93.1674805,451.6801758 94.3598633,451.2392578 95.9125977,451.2392578 C97.0493164,451.2392578 98.0688477,451.4619141 98.9711914,451.9072266 L98.1801758,453.9814453 C97.7583008,453.8115234 97.3657227,453.6723633 97.0024414,453.5639648 C96.6391602,453.4555664 96.2758789,453.4013672 95.9125977,453.4013672 C94.5180664,453.4013672 93.8208008,454.3916016 93.8208008,456.3720703 C93.8208008,458.2939453 94.5180664,459.2548828 95.9125977,459.2548828 C96.4282227,459.2548828 96.9057617,459.1860352 97.3452148,459.0483398 C97.784668,458.9106445 98.2241211,458.6953125 98.6635742,458.4023438 L98.6635742,460.6962891 C98.2299805,460.9716797 97.7919922,461.1621094 97.3496094,461.2675781 C96.9072266,461.3730469 96.3491211,461.4257813 95.675293,461.4257813 Z M110.0102539,461.25 L107.3295898,461.25 L107.3295898,455.5107422 C107.3295898,454.0927734 106.8022461,453.3837891 105.7475586,453.3837891 C104.9975586,453.3837891 104.4555664,453.6386719 104.121582,454.1484375 C103.7875977,454.6582031 103.6206055,455.484375 103.6206055,456.6269531 L103.6206055,461.25 L100.9399414,461.25 L100.9399414,447.5742188 L103.6206055,447.5742188 L103.6206055,450.3603516 C103.6206055,450.5771484 103.6000977,451.0869141 103.559082,451.8896484 L103.4975586,452.6806641 L103.6381836,452.6806641 C104.2358398,451.7197266 105.1850586,451.2392578 106.4858398,451.2392578 C107.6401367,451.2392578 108.5161133,451.5498047 109.1137695,452.1708984 C109.7114258,452.7919922 110.0102539,453.6826172 110.0102539,454.8427734 Z M116.8393555,453.1464844 C116.2709961,453.1464844 115.8256836,453.3266602 115.503418,453.6870117 C115.1811523,454.0473633 114.996582,454.5585938 114.949707,455.2207031 L118.7114258,455.2207031 C118.699707,454.5585938 118.5268555,454.0473633 118.1928711,453.6870117 C117.8588867,453.3266602 117.4077148,453.1464844 116.8393555,453.1464844 Z M117.2172852,461.4257813 C115.6352539,461.4257813 114.3989258,460.9892578 113.5083008,460.1162109 C112.6176758,459.2431641 112.1723633,458.0068359 112.1723633,456.4072266 C112.1723633,454.7607422 112.5839844,453.487793 113.4072266,452.5883789 C114.2304688,451.6889648 115.3686523,451.2392578 116.8217773,451.2392578 C118.2104492,451.2392578 119.2915039,451.6347656 120.0649414,452.4257813 C120.8383789,453.2167969 121.2250977,454.3095703 121.2250977,455.7041016 L121.2250977,457.0048828 L114.8881836,457.0048828 C114.9174805,457.7666016 115.1430664,458.3613281 115.5649414,458.7890625 C115.9868164,459.2167969 116.5786133,459.4306641 117.340332,459.4306641 C117.9321289,459.4306641 118.4916992,459.3691406 119.019043,459.2460938 C119.5463867,459.1230469 120.097168,458.9267578 120.6713867,458.6572266 L120.6713867,460.7314453 C120.2026367,460.9658203 119.7016602,461.1401367 119.168457,461.2543945 C118.6352539,461.3686523 117.9848633,461.4257813 117.2172852,461.4257813 Z M121.9985352,461.25" style="fill:rgb(255,255,255);stroke:none" clip-path="url(#clip29)" />
<clipPath id="clip30"><path d="M786,108 L869,108 L869,191 L786,191 L786,108 Z" /></clipPath>
<path d="M864,149 C864,128.5654602 847.4345703,112 827,112 C806.5654297,112 790,128.5654602 790,149 C790,169.4345398 806.5654297,186 827,186 C847.4345703,186 864,169.4345398 864,149 Z M864,149" style="fill:rgb(128,100,162);stroke:none" clip-path="url(#clip30)" />
<clipPath id="clip31"><path d="M786,108 L869,108 L869,191 L786,191 L786,108 Z" /></clipPath>
<path d="M864,149 C864,128.5654602 847.4345703,112 827,112 C806.5654297,112 790,128.5654602 790,149 C790,169.4345398 806.5654297,186 827,186 C847.4345703,186 864,169.4345398 864,149 Z M864,149" style="fill:none;stroke:rgb(198,217,241);stroke-width:5" clip-path="url(#clip31)" />
<clipPath id="clip32"><path d="M800,135 L855,135 L855,164 L800,164 L800,135 Z" /></clipPath>
<path d="M806.4643555,149.0341797 L807.3608398,149.0341797 C808.1987305,149.0341797 808.8256836,148.8686523 809.2416992,148.5375977 C809.6577148,148.206543 809.8657227,147.7246094 809.8657227,147.0917969 C809.8657227,146.453125 809.6914063,145.9814453 809.3427734,145.6767578 C808.9941406,145.3720703 808.4477539,145.2197266 807.7036133,145.2197266 L806.4643555,145.2197266 Z M812.6166992,146.9951172 C812.6166992,148.3779297 812.1845703,149.4355469 811.3203125,150.1679688 C810.4560547,150.9003906 809.2270508,151.2666016 807.6333008,151.2666016 L806.4643555,151.2666016 L806.4643555,155.8369141 L803.7397461,155.8369141 L803.7397461,142.9873047 L807.8442383,142.9873047 C809.402832,142.9873047 810.5878906,143.3227539 811.3994141,143.9936523 C812.2109375,144.6645508 812.6166992,145.6650391 812.6166992,146.9951172 Z M820.315918,145.8261719 C820.6791992,145.8261719 820.980957,145.8525391 821.2211914,145.9052734 L821.019043,148.4189453 C820.8022461,148.3603516 820.5385742,148.3310547 820.2280273,148.3310547 C819.3725586,148.3310547 818.7060547,148.5507813 818.2285156,148.9902344 C817.7509766,149.4296875 817.512207,150.0449219 817.512207,150.8359375 L817.512207,155.8369141 L814.831543,155.8369141 L814.831543,146.0107422 L816.8618164,146.0107422 L817.2573242,147.6630859 L817.3891602,147.6630859 C817.6938477,147.1123047 818.1054688,146.668457 818.6240234,146.331543 C819.1425781,145.9946289 819.706543,145.8261719 820.315918,145.8261719 Z M828.8852539,155.8369141 L828.3666992,154.5009766 L828.2963867,154.5009766 C827.8452148,155.0693359 827.3808594,155.4633789 826.9033203,155.6831055 C826.4257813,155.902832 825.8032227,156.0126953 825.0356445,156.0126953 C824.0922852,156.0126953 823.3496094,155.7431641 822.8076172,155.2041016 C822.265625,154.6650391 821.9946289,153.8974609 821.9946289,152.9013672 C821.9946289,151.8583984 822.359375,151.0893555 823.0888672,150.5942383 C823.8183594,150.0991211 824.918457,149.8251953 826.3891602,149.7724609 L828.0942383,149.7197266 L828.0942383,149.2890625 C828.0942383,148.2929688 827.5844727,147.7949219 826.5649414,147.7949219 C825.7797852,147.7949219 824.8569336,148.0322266 823.7963867,148.5068359 L822.9086914,146.6962891 C824.0395508,146.1044922 825.293457,145.8085938 826.6704102,145.8085938 C827.9887695,145.8085938 828.9995117,146.0957031 829.7026367,146.6699219 C830.4057617,147.2441406 830.7573242,148.1171875 830.7573242,149.2890625 L830.7573242,155.8369141 Z M828.0942383,151.2841797 L827.0571289,151.3193359 C826.277832,151.3427734 825.6977539,151.4833984 825.3168945,151.7412109 C824.9360352,151.9990234 824.7456055,152.3916016 824.7456055,152.9189453 C824.7456055,153.6748047 825.1791992,154.0527344 826.0463867,154.0527344 C826.6674805,154.0527344 827.1640625,153.8740234 827.5361328,153.5166016 C827.9082031,153.1591797 828.0942383,152.6845703 828.0942383,152.0927734 Z M837.6567383,153.8769531 C838.1254883,153.8769531 838.6879883,153.7744141 839.3442383,153.5693359 L839.3442383,155.5644531 C838.6762695,155.8632813 837.855957,156.0126953 836.8833008,156.0126953 C835.8110352,156.0126953 835.0302734,155.7416992 834.5410156,155.199707 C834.0517578,154.6577148 833.8071289,153.8447266 833.8071289,152.7607422 L833.8071289,148.0234375 L832.5239258,148.0234375 L832.5239258,146.8896484 L834.0004883,145.9931641 L834.7739258,143.9189453 L836.487793,143.9189453 L836.487793,146.0107422 L839.2387695,146.0107422 L839.2387695,148.0234375 L836.487793,148.0234375 L836.487793,152.7607422 C836.487793,153.1416016 836.5947266,153.4228516 836.8085938,153.6044922 C837.0224609,153.7861328 837.3051758,153.8769531 837.6567383,153.8769531 Z M843.4663086,150.90625 C843.4663086,151.8789063 843.6259766,152.6142578 843.9453125,153.1123047 C844.2646484,153.6103516 844.784668,153.859375 845.5053711,153.859375 C846.2202148,153.859375 846.734375,153.6118164 847.0478516,153.1166992 C847.3613281,152.621582 847.5180664,151.8847656 847.5180664,150.90625 C847.5180664,149.9335938 847.3598633,149.2041016 847.043457,148.7177734 C846.7270508,148.2314453 846.2084961,147.9882813 845.487793,147.9882813 C844.7729492,147.9882813 844.2573242,148.2299805 843.940918,148.7133789 C843.6245117,149.1967773 843.4663086,149.9277344 843.4663086,150.90625 Z M850.2602539,150.90625 C850.2602539,152.5058594 849.8383789,153.7568359 848.9946289,154.6591797 C848.1508789,155.5615234 846.9760742,156.0126953 845.4702148,156.0126953 C844.5268555,156.0126953 843.6948242,155.8061523 842.9741211,155.3930664 C842.253418,154.9799805 841.699707,154.3867188 841.3129883,153.6132813 C840.9262695,152.8398438 840.7329102,151.9375 840.7329102,150.90625 C840.7329102,149.3007813 841.1518555,148.0527344 841.9897461,147.1621094 C842.8276367,146.2714844 844.0053711,145.8261719 845.5229492,145.8261719 C846.4663086,145.8261719 847.2983398,146.03125 848.019043,146.4414063 C848.7397461,146.8515625 849.293457,147.4404297 849.6801758,148.2080078 C850.0668945,148.9755859 850.2602539,149.875 850.2602539,150.90625 Z M851.0688477,155.8369141" style="fill:rgb(255,255,255);stroke:none" clip-path="url(#clip32)" />
<clipPath id="clip33"><path d="M107,500 L488,500 L488,757 L107,757 L107,500 Z" /></clipPath>
<path d="M484.460083,753.4260254 C381,610 214,646 111.8546143,504.2547607" style="fill:none;stroke:rgb(51,102,255);stroke-width:3;stroke-dasharray:18,9;stroke-dashoffset:0" clip-path="url(#clip33)" />
<clipPath id="clip34"><path d="M107,500 L488,500 L488,757 L107,757 L107,500 Z" /></clipPath>
<path d="M120.9742126,508.3575745 L111.8546143,504.2547607 L112.8612671,514.2039795 Z M120.9742126,508.3575745" style="fill:rgb(51,102,255);stroke:none" clip-path="url(#clip34)" />
<clipPath id="clip35"><path d="M107,500 L488,500 L488,757 L107,757 L107,500 Z" /></clipPath>
<path d="M120.9742126,508.3575745 L111.8546143,504.2547607 L112.8612671,514.2039795 Z M120.9742126,508.3575745" style="fill:none;stroke:rgb(51,102,255);stroke-width:3" clip-path="url(#clip35)" />
<clipPath id="clip36"><path d="M494,95 L659,95 L659,744 L494,744 L494,95 Z" /></clipPath>
<path d="M572.9974365,740.2277832 C655,500 498,339 580.3487549,99.6338501" style="fill:none;stroke:rgb(51,102,255);stroke-width:3;stroke-dasharray:18,9;stroke-dashoffset:0" clip-path="url(#clip36)" />
<clipPath id="clip37"><path d="M494,95 L659,95 L659,744 L494,744 L494,95 Z" /></clipPath>
<path d="M582.2595215,109.4496155 L580.3487549,99.6338501 L572.8034668,106.1964417 Z M582.2595215,109.4496155" style="fill:rgb(51,102,255);stroke:none" clip-path="url(#clip37)" />
<clipPath id="clip38"><path d="M494,95 L659,95 L659,744 L494,744 L494,95 Z" /></clipPath>
<path d="M582.2595215,109.4496155 L580.3487549,99.6338501 L572.8034668,106.1964417 Z M582.2595215,109.4496155" style="fill:none;stroke:rgb(51,102,255);stroke-width:3" clip-path="url(#clip38)" />
<clipPath id="clip39"><path d="M215,85 L568,85 L568,760 L215,760 L215,85 Z" /></clipPath>
<path d="M564.1253052,89.638855 C356,303 427,541 219.1343994,756.2275391" style="fill:none;stroke:rgb(155,187,89);stroke-width:3;stroke-dasharray:18,9;stroke-dashoffset:0" clip-path="url(#clip39)" />
<clipPath id="clip40"><path d="M215,85 L568,85 L568,760 L215,760 L215,85 Z" /></clipPath>
<path d="M221.5541687,746.5246582 L219.1343994,756.2275391 L228.7471924,753.4716797 Z M221.5541687,746.5246582" style="fill:rgb(155,187,89);stroke:none" clip-path="url(#clip40)" />
<clipPath id="clip41"><path d="M215,85 L568,85 L568,760 L215,760 L215,85 Z" /></clipPath>
<path d="M221.5541687,746.5246582 L219.1343994,756.2275391 L228.7471924,753.4716797 Z M221.5541687,746.5246582" style="fill:none;stroke:rgb(155,187,89);stroke-width:3" clip-path="url(#clip41)" />
<clipPath id="clip42"><path d="M71,511 L188,511 L188,747 L71,747 L71,511 Z" /></clipPath>
<path d="M184.4296265,743.0726318 C179,645 85,612 79.5084534,515.8981934" style="fill:none;stroke:rgb(75,172,198);stroke-width:3;stroke-dasharray:18,9;stroke-dashoffset:0" clip-path="url(#clip42)" />
<clipPath id="clip43"><path d="M71,511 L188,511 L188,747 L71,747 L71,511 Z" /></clipPath>
<path d="M84.9943848,524.2590942 L79.5084534,515.8981934 L75.0106812,524.8295898 Z M84.9943848,524.2590942" style="fill:rgb(75,172,198);stroke:none" clip-path="url(#clip43)" />
<clipPath id="clip44"><path d="M71,511 L188,511 L188,747 L71,747 L71,511 Z" /></clipPath>
<path d="M84.9943848,524.2590942 L79.5084534,515.8981934 L75.0106812,524.8295898 Z M84.9943848,524.2590942" style="fill:none;stroke:rgb(75,172,198);stroke-width:3" clip-path="url(#clip44)" />
<clipPath id="clip45"><path d="M142,278 L265,278 L265,749 L142,749 L142,278 Z" /></clipPath>
<path d="M206.5447388,282.2134094 C146,454 261,572 201.9606018,745.5279541" style="fill:none;stroke:rgb(85,142,213);stroke-width:3;stroke-dasharray:18,9;stroke-dashoffset:0" clip-path="url(#clip45)" />
<clipPath id="clip46"><path d="M142,278 L265,278 L265,749 L142,749 L142,278 Z" /></clipPath>
<path d="M200.01651,735.71875 L201.9606018,745.5279541 L209.4835815,738.9397583 Z M200.01651,735.71875" style="fill:rgb(85,142,213);stroke:none" clip-path="url(#clip46)" />
<clipPath id="clip47"><path d="M142,278 L265,278 L265,749 L142,749 L142,278 Z" /></clipPath>
<path d="M200.01651,735.71875 L201.9606018,745.5279541 L209.4835815,738.9397583 Z M200.01651,735.71875" style="fill:none;stroke:rgb(85,142,213);stroke-width:3" clip-path="url(#clip47)" />
<clipPath id="clip48"><path d="M260,271 L820,271 L820,754 L260,754 L260,271 Z" /></clipPath>
<path d="M264.6506653,275.9795532 C416,520 664,504 816.2255249,750.3209839" style="fill:none;stroke:rgb(85,142,213);stroke-width:3;stroke-dasharray:18,9;stroke-dashoffset:0" clip-path="url(#clip48)" />
<clipPath id="clip49"><path d="M260,271 L820,271 L820,754 L260,754 L260,271 Z" /></clipPath>
<path d="M807.4194336,745.5825195 L816.2255249,750.3209839 L815.9260864,740.3255005 Z M807.4194336,745.5825195" style="fill:rgb(85,142,213);stroke:none" clip-path="url(#clip49)" />
<clipPath id="clip50"><path d="M260,271 L820,271 L820,754 L260,754 L260,271 Z" /></clipPath>
<path d="M807.4194336,745.5825195 L816.2255249,750.3209839 L815.9260864,740.3255005 Z M807.4194336,745.5825195" style="fill:none;stroke:rgb(85,142,213);stroke-width:3" clip-path="url(#clip50)" />
<clipPath id="clip51"><path d="M292,57 L555,57 L555,212 L292,212 L292,57 Z" /></clipPath>
<path d="M296.2086182,208.2320251 C409,191 438,82 551.4822998,64.9595337" style="fill:none;stroke:rgb(85,142,213);stroke-width:3;stroke-dasharray:18,9;stroke-dashoffset:0" clip-path="url(#clip51)" />
<clipPath id="clip52"><path d="M292,57 L555,57 L555,212 L292,212 L292,57 Z" /></clipPath>
<path d="M543.6605225,71.190094 L551.4822998,64.9595337 L542.1755371,61.3009644 Z M543.6605225,71.190094" style="fill:rgb(85,142,213);stroke:none" clip-path="url(#clip52)" />
<clipPath id="clip53"><path d="M292,57 L555,57 L555,212 L292,212 L292,57 Z" /></clipPath>
<path d="M543.6605225,71.190094 L551.4822998,64.9595337 L542.1755371,61.3009644 Z M543.6605225,71.190094" style="fill:none;stroke:rgb(85,142,213);stroke-width:3" clip-path="url(#clip53)" />
<clipPath id="clip54"><path d="M834,184 L925,184 L925,280 L834,280 L834,184 Z" /></clipPath>
<path d="M838.5950317,188.4506226 C851,232 906,233 919.0517578,276.9242554" style="fill:none;stroke:rgb(128,100,162);stroke-width:3;stroke-dasharray:18,9;stroke-dashoffset:0" clip-path="url(#clip54)" />
<clipPath id="clip55"><path d="M834,184 L925,184 L925,280 L834,280 L834,184 Z" /></clipPath>
<path d="M911.7921143,270.046875 L919.0517578,276.9242554 L921.3779297,267.1985474 Z M911.7921143,270.046875" style="fill:rgb(128,100,162);stroke:none" clip-path="url(#clip55)" />
<clipPath id="clip56"><path d="M834,184 L925,184 L925,280 L834,280 L834,184 Z" /></clipPath>
<path d="M911.7921143,270.046875 L919.0517578,276.9242554 L921.3779297,267.1985474 Z M911.7921143,270.046875" style="fill:none;stroke:rgb(128,100,162);stroke-width:3" clip-path="url(#clip56)" />
<clipPath id="clip57"><path d="M119,488 L805,488 L805,766 L119,766 L119,488 Z" /></clipPath>
<path d="M123.6231384,492.9311829 C348,674 577,579 801.993042,762.5909424" style="fill:none;stroke:rgb(192,80,77);stroke-width:3;stroke-dasharray:18,9;stroke-dashoffset:0" clip-path="url(#clip57)" />
<clipPath id="clip58"><path d="M119,488 L805,488 L805,766 L119,766 L119,488 Z" /></clipPath>
<path d="M792.1220093,760.9897461 L801.993042,762.5909424 L798.4442139,753.2418213 Z M792.1220093,760.9897461" style="fill:rgb(192,80,77);stroke:none" clip-path="url(#clip58)" />
<clipPath id="clip59"><path d="M119,488 L805,488 L805,766 L119,766 L119,488 Z" /></clipPath>
<path d="M792.1220093,760.9897461 L801.993042,762.5909424 L798.4442139,753.2418213 Z M792.1220093,760.9897461" style="fill:none;stroke:rgb(192,80,77);stroke-width:3" clip-path="url(#clip59)" />
</svg>
